<?xml version="1.0" encoding="UTF-8" standalone="no"?> <!-- Created with Vectornator for iOS (http://vectornator.io/) --><!DOCTYPE svg PUBLIC "-//W3C//DTD SVG 1.1//EN" "http://www.w3.org/Graphics/SVG/1.1/DTD/svg11.dtd">
<svg style="fill-rule:nonzero;clip-rule:evenodd;stroke-linecap:round;stroke-linejoin:round;" xmlns:vectornator="http://vectornator.io" xmlns:xlink="http://www.w3.org/1999/xlink" xmlns="http://www.w3.org/2000/svg" xml:space="preserve" version="1.1" viewBox="0 0 1024 1024">
<metadata>
<vectornator:setting key="DimensionsVisible" value="1"/>
<vectornator:setting key="PencilOnly" value="0"/>
<vectornator:setting key="SnapToPoints" value="0"/>
<vectornator:setting key="OutlineMode" value="0"/>
<vectornator:setting key="CMYKEnabledKey" value="0"/>
<vectornator:setting key="RulersVisible" value="1"/>
<vectornator:setting key="SnapToEdges" value="0"/>
<vectornator:setting key="GuidesVisible" value="1"/>
<vectornator:setting key="DisplayWhiteBackground" value="0"/>
<vectornator:setting key="doHistoryDisabled" value="0"/>
<vectornator:setting key="SnapToGuides" value="1"/>
<vectornator:setting key="TimeLapseWatermarkDisabled" value="0"/>
<vectornator:setting key="DynamicGuides" value="1"/>
<vectornator:setting key="IsolateActiveLayer" value="0"/>
<vectornator:setting key="SnapToGrid" value="0"/>
<vectornator:setting key="Units" value="Pixels"/>
</metadata>
<defs/>
<g id="Layer 1" vectornator:layerName="Layer 1">
<path stroke="#000000" stroke-width="10" d="M255.817+510.329C255.817+372.257+367.745+260.329+505.817+260.329C643.888+260.329+755.817+372.257+755.817+510.329" fill="none" stroke-linecap="round" opacity="1" stroke-linejoin="round"/>
</g>
<g id="I" vectornator:layerName="I">
<path d="M507.5+47.0312C507.079+65.9112+506.83+84.7733+506.594+103.656C506.372+121.369+506.175+139.112+505.438+156.812C505.237+161.635+505.194+166.428+505.031+171.25C504.806+177.924+504.587+184.604+504.469+191.281C504.385+196.022+504.049+200.767+504.469+205.5C504.797+209.201+505.642+212.772+506.938+216.25C507.838+218.596+510.467+219.776+512.812+218.875C515.158+217.974+516.338+215.346+515.438+213C514.572+210.823+513.899+208.599+513.531+206.281C512.747+201.342+513.057+196.294+513+191.312C512.924+184.626+512.663+177.931+512.438+171.25C512.325+167.912+512.341+164.588+512.219+161.25C511.263+135.242+509.896+109.253+508.812+83.25C508.309+71.1776+507.885+59.1079+507.5+47.0312Z" opacity="1" fill="#000000"/>
<path d="M716.25+76.5C696.273+99.8855+677.228+124.026+658.938+148.75C652.74+157.127+646.641+165.577+640.594+174.062C637.712+178.106+634.806+182.101+632.031+186.219C629.517+189.949+626.851+193.559+624.281+197.25C621.484+201.267+618.765+205.336+616+209.375C612.781+214.077+609.517+218.811+607+223.938C605.349+227.3+604.084+230.78+603.156+234.406C602.555+236.846+604.06+239.305+606.5+239.906C608.94+240.508+611.399+239.034+612+236.594C614.181+227.345+619.454+219.784+624.5+211.906C628.372+205.861+632.103+199.713+635.906+193.625C637.574+190.956+639.307+188.329+640.969+185.656C643.353+181.821+645.676+177.96+648.062+174.125C653.781+164.935+659.632+155.827+665.625+146.812C681.621+122.75+698.538+99.3269+716.25+76.5Z" opacity="1" fill="#000000"/>
<path d="M863.594+191.906C839.908+204.396+816.278+217.071+793.344+230.906C787.773+234.267+782.243+237.701+776.75+241.188C773.838+243.036+770.906+244.858+768.062+246.812C765.611+248.497+763.237+250.276+760.812+252C758.378+253.731+755.847+255.412+753.469+257.219C749.622+260.141+745.972+263.325+742.281+266.438C738.579+269.559+734.913+272.702+731.281+275.906C720.888+285.073+710.545+294.399+701.656+305.062C700.064+307.007+700.368+309.877+702.312+311.469C704.257+313.061+707.127+312.757+708.719+310.812C716.941+300.588+726.563+291.701+735.969+282.594C738.873+279.782+741.654+276.867+744.594+274.094C746.459+272.334+748.443+270.69+750.344+268.969C752.78+266.763+755.094+264.419+757.562+262.25C759.476+260.569+761.553+259.01+763.531+257.406C766.099+255.324+768.634+253.209+771.25+251.188C774.232+248.883+777.31+246.692+780.375+244.5C786.882+239.847+793.496+235.335+800.156+230.906C820.831+217.158+842.194+204.482+863.594+191.906Z" opacity="1" fill="#000000"/>
<path d="M953.812+341.688C919.563+355.409+885.008+368.659+852.406+386.062C846.702+389.108+841.016+392.292+835.438+395.562C829.731+398.907+824.232+402.541+818.656+406.094C816.137+407.699+813.6+409.25+811.094+410.875C799.116+418.637+787.361+426.742+775.219+434.25C773.093+435.59+772.441+438.374+773.781+440.5C775.121+442.626+777.937+443.277+780.062+441.938C791.164+434.805+801.995+427.28+812.719+419.594C816.593+416.817+820.403+413.958+824.281+411.188C827.18+409.117+830.175+407.165+833.094+405.125C840.27+400.109+847.508+395.194+855+390.656C886.5+371.577+920.343+356.883+953.812+341.688Z" opacity="1" fill="#000000"/>
<path d="M509.969+51.3125C509.584+63.3891+509.159+75.4589+508.656+87.5312C507.572+113.534+506.206+139.523+505.25+165.531C505.127+168.869+505.144+172.225+505.031+175.562C504.806+182.244+504.545+188.908+504.469+195.594C504.412+200.576+504.722+205.655+503.938+210.594C503.569+212.911+502.896+215.104+502.031+217.281C501.13+219.627+502.31+222.255+504.656+223.156C507.002+224.057+509.63+222.908+510.531+220.562C511.826+217.084+512.703+213.514+513.031+209.812C513.451+205.079+513.084+200.304+513+195.562C512.882+188.886+512.663+182.236+512.438+175.562C512.362+173.337+512.355+171.101+512.312+168.875C512.255+165.908+512.12+162.965+512+160C511.284+142.291+511.097+124.564+510.875+106.844C510.644+88.3382+510.381+69.815+509.969+51.3125Z" opacity="1" fill="#000000"/>
<path d="M301.25+80.7812C318.962+103.608+335.879+127.031+351.875+151.094C357.868+160.108+363.719+169.216+369.438+178.406C371.824+182.241+374.147+186.133+376.531+189.969C378.193+192.641+379.926+195.269+381.594+197.938C385.397+204.025+389.096+210.174+392.969+216.219C398.015+224.096+403.288+231.626+405.469+240.875C406.07+243.315+408.56+244.82+411+244.219C413.44+243.617+414.914+241.127+414.312+238.688C413.384+235.061+412.119+231.581+410.469+228.219C407.952+223.092+404.719+218.389+401.5+213.688C398.735+209.648+396.016+205.58+393.219+201.562C390.392+197.502+387.442+193.518+384.688+189.406C381.923+185.279+378.97+181.299+376.094+177.25C370.322+169.125+364.459+161.043+358.531+153.031C340.24+128.307+321.227+104.167+301.25+80.7812Z" opacity="1" fill="#000000"/>
<path d="M153.906+196.219C175.639+208.99+197.284+221.883+218.281+235.844C224.623+240.06+230.899+244.382+237.094+248.812C240.159+251.004+243.268+253.164+246.25+255.469C248.865+257.49+251.401+259.637+253.969+261.719C255.947+263.323+257.993+264.85+259.906+266.531C262.374+268.7+264.72+271.044+267.156+273.25C269.057+274.971+271.01+276.616+272.875+278.375C276.084+281.401+279.135+284.596+282.312+287.656C291.476+296.48+300.794+305.192+308.781+315.125C310.373+317.069+313.243+317.342+315.188+315.75C317.132+314.158+317.404+311.288+315.812+309.344C306.923+298.68+296.612+289.354+286.219+280.188C282.587+276.984+278.889+273.841+275.188+270.719C271.497+267.606+267.846+264.422+264+261.5C261.621+259.693+259.122+258.044+256.688+256.312C254.263+254.589+251.857+252.81+249.406+251.125C246.249+248.955+242.984+246.927+239.75+244.875C234.578+241.593+229.37+238.351+224.125+235.188C201.191+221.352+177.592+208.709+153.906+196.219Z" opacity="1" fill="#000000"/>
<path d="M63.6562+346C97.1257+361.195+130.969+375.89+162.469+394.969C169.961+399.507+177.23+404.421+184.406+409.438C187.325+411.478+190.289+413.398+193.188+415.469C197.066+418.239+200.907+421.098+204.781+423.875C215.505+431.562+226.336+439.086+237.438+446.219C239.563+447.559+242.348+446.938+243.688+444.812C245.027+442.687+244.407+439.871+242.281+438.531C230.139+431.023+218.384+422.95+206.406+415.188C203.899+413.563+201.363+411.98+198.844+410.375C193.268+406.822+187.738+403.189+182.031+399.844C176.453+396.574+170.798+393.42+165.094+390.375C132.492+372.971+97.9054+359.722+63.6562+346Z" opacity="1" fill="#000000"/>
<path stroke="#000000" stroke-width="5" d="M95.4952+513.856L905.957+512" fill="none" stroke-linecap="round" opacity="1" stroke-linejoin="round"/>
</g>
</svg>
