<?xml version="1.0" encoding="utf-8"?>
<!-- Generator: Adobe Illustrator 24.0.3, SVG Export Plug-In . SVG Version: 6.00 Build 0)  -->
<svg version="1.1" id="Layer_1" xmlns="http://www.w3.org/2000/svg" xmlns:xlink="http://www.w3.org/1999/xlink" x="0px" y="0px"
	 viewBox="0 0 70.36 300" style="enable-background:new 0 0 70.36 300;" xml:space="preserve">
<style type="text/css">
	.st0{fill:#F7F7F7;}
</style>
<path class="st0" d="M19.46,53.15c-0.87,0.22-1.69,0.54-2.64,0.5c-0.78-0.03-1.59,0.39-2.52,0.64c0.23-0.37,0.39-0.63,0.56-0.91
	c-0.1-0.04-0.16-0.08-0.2-0.07c-0.63,0.24-1.15,0.88-1.94,0.49l-0.04,0.01l1.31-0.8l-1.44,0.26l1.27-0.93l-0.03,0.02
	c0.03-0.08,0.06-0.15,0.09-0.23l-0.37-0.42l1.41-0.63l-1.48-0.89c0.04-0.1,0.07-0.19,0.11-0.29c0.32,0.1,0.66,0.14,0.95,0.3
	c0.77,0.44,1.3-0.01,1.76-0.49c0.55-0.57,0.99-1.23,1.53-1.92c-0.33-0.77-1.17-0.85-2-1.05c1-0.19,1.82-0.92,2.92-0.61
	c0.45,0.13,0.96,0.01,1.44,0c2.01-0.05,3.82,0.37,5.16,2.05c0.32,0.4,0.78,0.68,1.12,1.11l-0.95-0.52c0.07,0.84,0.82,1.75,1.75,2.28
	c0.03,0.14,0.07,0.27,0.12,0.41l0,0c-0.16,0.51-0.3,0.96-0.49,1.54c-0.61-0.43-1.01-0.76-1.46-0.99c-0.16-0.08-0.44,0.05-0.67,0.09
	l0.03-0.39c-0.06,0.01-0.12,0.02-0.18,0.04c0.01,0.13,0.03,0.25,0.05,0.38c-0.02,0.39-0.04,0.78-0.06,1.18
	c-0.04,0-0.07,0.01-0.11,0.02c-0.09-0.38-0.15-0.77-0.19-1.16c-0.04-0.5-0.11-0.93-0.61-1.22c-0.4,0.24-0.79,0.44-1.15,0.7
	c-0.39,0.28-0.74,0.59-1.11,0.89C20.76,52.76,20.11,52.98,19.46,53.15z M29.31,8.4c-1.05,0.25-2.1,0.51-3.12,0.83
	c-1.68,0.55-1.9,0.89-1.86,2.59c-0.67-0.26-1.17,0.02-1.7,0.97c-0.09,0.02-0.17,0.09-0.2,0.18c-0.1,0.26-0.18,0.53-0.28,0.79
	c-0.01,0.04-0.02,0.08-0.02,0.13l-0.02,0.06l-0.42,0.23c0,0,0.01,0.01,0.01,0.01h-0.03v-0.02l-0.64-0.22
	c0.08-0.14,0.26-0.29,0.24-0.41c-0.17-0.83-1-0.9-1.58-1.13c-0.28-0.13-0.6-0.16-0.89-0.09c-0.04-0.27-0.11-0.54-0.23-0.79
	c0.3-0.32,0.59-0.64,0.96-1.03L18.8,9.75h-0.03c0.11-0.6-0.42-0.83-0.7-1.22c-1.04-1.41-2.11-2.79-3.93-3.58
	c-0.03-0.07-0.09-0.12-0.16-0.15c-0.02,0-0.04-0.01-0.06-0.01l0.04-0.1c-0.57-0.4-1.01-0.78-0.52-1.46l1.11,0.24
	c0.14,0.04,0.29,0.07,0.44,0.08l-0.05,0.08l0.68,0.35l0.07-0.12L15.2,3.55c0.11-0.01,0.22-0.03,0.32-0.07
	c0.07-0.02,0.12-0.07,0.15-0.13c0.58,0.58,1.22,1.03,2.05,1.2l-0.02-0.03c0.9,0.59,1.81,1.18,2.7,1.78c0.7,0.46,1.24,1,1.47,1.87
	c0.25,0.94,0.48,0.95,1.35,0.57c2.31-1.02,4.62-2.02,6.95-2.96c0.63-0.25,1.37-0.25,2.09-0.36C32.1,6.77,30.76,8.06,29.31,8.4z
	 M21.78,13.38c0-0.2,0-0.4-0.01-0.59l-0.24,0.01c0.02,0.2,0.03,0.39,0.05,0.59L21.78,13.38z M39.28,181.86
	c0.84,0.14,1.71,0.13,2.45,0.42c2.74,1.1,5.45,2.28,8.15,3.47c1.02,0.45,1.29,0.43,1.59-0.67c0.28-1.01,0.91-1.65,1.72-2.19
	c1.05-0.7,2.11-1.39,3.17-2.09l-0.02,0.03c0.98-0.2,1.73-0.73,2.41-1.41c0.04,0.07,0.1,0.13,0.18,0.15
	c0.12,0.04,0.25,0.07,0.38,0.08l-0.56,0.37l0.08,0.14l0.8-0.4l-0.06-0.1c0.17-0.01,0.34-0.04,0.51-0.09l1.29-0.28
	c0.57,0.8,0.06,1.25-0.61,1.72l0.04,0.12c-0.02,0-0.04,0.01-0.07,0.01c-0.08,0.03-0.15,0.09-0.19,0.17c-2.13,0.93-3.39,2.54-4.6,4.2
	c-0.32,0.45-0.95,0.72-0.82,1.42h-0.04l-0.87,0.91l1.13,1.21c-0.14,0.3-0.23,0.61-0.27,0.94c-0.28-0.09-0.63-0.07-1.05,0.1
	c-0.68,0.27-1.65,0.35-1.85,1.33c-0.03,0.14,0.18,0.32,0.28,0.48l-0.76,0.25c0,0.01,0,0.01,0,0.02c-0.01,0-0.02-0.01-0.03-0.01
	l0.01-0.02l-0.5-0.26l-0.03-0.07c0-0.05,0-0.1-0.02-0.15c-0.11-0.31-0.2-0.62-0.32-0.93c-0.03-0.11-0.12-0.19-0.23-0.22
	c-0.63-1.12-1.21-1.44-2-1.14c0.05-1.99-0.21-2.4-2.18-3.04c-1.2-0.39-2.43-0.7-3.66-0.99C41.07,184.95,39.49,183.45,39.28,181.86z
	 M51.83,191.2l0.06-0.7l-0.28-0.01c0,0.23-0.01,0.46-0.01,0.7L51.83,191.2z M13.81,30.09L13.56,30l0.01,0.03l-0.74,0.13
	c0.46-0.53,1.05-1.01,1.34-1.63c0.31-0.65,0.64-1.13,1.32-1.35c0.03-0.01,0.04-0.12,0.06-0.18l-0.83-0.5l1.56-0.36l-0.03-0.26
	l-2.04-0.22l2.19-0.92l-0.08-0.21l-1.69,0.03l-0.28,0.18l-0.07,0.03l0.04-0.02l0.33-0.15l1.2-0.68c-1.62-1.03-2.82,0.11-4.15,0.65
	c0.02-0.3,0.03-0.44,0.04-0.59l0.01,0.04c-0.32,0.25-0.64,0.5-0.96,0.74c-0.45,0.34-0.86,0.86-1.35,0.96
	C8,26.01,7.4,27.04,6.86,28.18c-0.16,0.34-0.28,0.7-0.45,1.03c-0.26,0.52-0.63,0.76-1.14,0.3c-1.04-0.92-2.13-0.15-3.2-0.24
	c2.11,1.04,3.05,2.99,4.27,4.86c-1.26-0.1-1.36,0.05-0.99,1.25l3.39-0.16c0.55,0.82,1.05,1.65,1.63,2.42
	c0.51,0.69,0.98,0.74,1.73,0.33c0.78-0.44,1.05-1.85,0.51-2.86c-0.39-0.74-0.81-1.46-1.26-2.27c0.38-0.25,0.73-0.66,1.1-0.67
	c1.59-0.06,2.02-1.29,2.61-2.39l0.02,0.04l-1.28,0.28L13.81,30.09z M6.67,34.82l-0.11,0.2L5.9,34.7l0.16-0.29L6.67,34.82z
	 M49.12,106.36c0.24-0.41,0.47-0.82,0.75-1.21c0.25-0.36,0.55-0.68,0.84-1.04c0.56,0.1,0.78,0.49,0.98,0.94
	c0.17,0.35,0.36,0.7,0.57,1.03c0.03-0.02,0.07-0.03,0.1-0.05l-0.35-1.13c-0.06-0.11-0.13-0.22-0.18-0.34c0-0.01,0.1-0.07,0.15-0.1
	c0.04,0.13,0.07,0.25,0.11,0.38c0.2-0.11,0.42-0.34,0.6-0.31c0.5,0.07,0.99,0.24,1.71,0.44c-0.02-0.61-0.04-1.08-0.07-1.62l0,0
	c-0.09-0.11-0.18-0.22-0.25-0.34c-1.06-0.18-2.06-0.78-2.42-1.55l1.08,0.17c-0.47-0.28-1-0.4-1.43-0.67
	c-1.83-1.13-3.67-0.91-5.55-0.18c-0.45,0.17-0.89,0.45-1.36,0.49c-1.14,0.08-1.67,1.04-2.54,1.56c0.85-0.09,1.67-0.3,2.24,0.31
	c-0.28,0.83-0.47,1.61-0.79,2.33c-0.27,0.6-0.62,1.21-1.49,1.05c-0.32-0.06-0.66,0.02-0.99,0.04l-0.01,0.31l1.68,0.33l-1.11,1.06
	l0.49,0.28l-0.01,0.25l0.03-0.03l-0.88,1.3l1.27-0.74l-0.95,1.19l0.03-0.02c0.87,0.1,1.15-0.68,1.66-1.11c0.03-0.03,0.1,0,0.21,0
	c-0.07,0.32-0.14,0.62-0.22,1.04c0.79-0.56,1.4-1.23,2.15-1.46c0.92-0.28,1.58-0.87,2.32-1.37
	C48.04,107.19,48.57,106.76,49.12,106.36z M26.66,75.32l-0.77-1.06l0.04-0.02c-0.29,1.21-0.77,2.42,0.38,3.51
	c0.26,0.25,0.25,0.79,0.38,1.23c-0.87,0.31-1.67,0.58-2.45,0.87c-1.08,0.4-1.81,1.63-1.51,2.48c0.28,0.8,0.67,1.07,1.51,0.89
	c0.94-0.2,1.87-0.49,2.82-0.74l2.44,2.36c1.07-0.66,1.1-0.83,0.09-1.59c2.15-0.59,4.14-1.44,6.41-0.83
	c-0.86-0.64-1.18-1.95-2.56-1.94c-0.68,0-0.81-0.42-0.66-0.98c0.09-0.36,0.24-0.71,0.34-1.07c0.35-1.22,0.58-2.39-0.3-3.55
	c-0.31-0.4-0.27-1.07-0.38-1.62c-0.08-0.4-0.16-0.79-0.23-1.19l0.03-0.02l-0.36,0.47c-0.65-1.28-0.8-2.94-2.69-3.23l0.45,1.3
	l0.15,0.33l0.02,0.04l-0.04-0.06l-0.09-0.32l-1.25-1.14l-0.2,0.11l1.04,2.13l-1.68-1.18l-0.19,0.18c0.28,0.39,0.56,0.78,0.94,1.3
	l-0.96-0.17c-0.03,0.06-0.1,0.14-0.08,0.17c0.37,0.62,0.3,1.2,0.1,1.89c-0.19,0.66-0.06,1.41-0.07,2.11l-0.47-0.58l0.03-0.02
	l-0.25-0.09L26.66,75.32z M29.62,83.66l-0.07,0.32l-0.7-0.19l0.04-0.22L29.62,83.66z M49.93,138.7c-0.33-0.83-0.56-1.68-1.16-2.43
	c-0.49-0.61-0.62-1.51-0.97-2.41c-0.16,0.4-0.28,0.69-0.4,0.99c-0.09-0.06-0.16-0.08-0.17-0.12c-0.18-0.65,0.03-1.45-0.75-1.86
	l-0.01-0.04c0.04,0.51,0.08,1.01,0.12,1.52l-0.64-1.32v1.57v-0.04c-0.04,0.07-0.09,0.14-0.13,0.21l-0.56-0.05
	c0.09,0.43,0.18,0.86,0.32,1.51l-1.58-0.66l-0.17,0.26c0.27,0.2,0.51,0.45,0.8,0.58c0.81,0.36,0.76,1.06,0.65,1.71
	c-0.14,0.77-0.41,1.52-0.65,2.36c-0.81,0.19-1.38-0.44-2.03-0.99c0.44,0.92,0.33,2.01,1.23,2.71c0.36,0.28,0.58,0.76,0.85,1.16
	c1.15,1.65,2.55,2.87,4.7,2.95c0.51,0.02,1.01,0.22,1.56,0.25l-0.99-0.46c0.72-0.44,1.89-0.37,2.87,0.06
	c0.13-0.06,0.26-0.1,0.4-0.14l0,0l0.96-1.3c-0.7-0.24-1.21-0.37-1.67-0.59c-0.16-0.08-0.22-0.39-0.32-0.59l-0.3,0.26
	c-0.03-0.05-0.05-0.11-0.07-0.17c0.11-0.07,0.22-0.13,0.34-0.18l0.92-0.74c-0.02-0.03-0.04-0.07-0.05-0.1
	c-0.36,0.16-0.71,0.33-1.04,0.53c-0.43,0.26-0.82,0.46-1.34,0.23c-0.04-0.47-0.11-0.9-0.12-1.34c-0.01-0.47,0.04-0.95,0.06-1.42
	C50.39,139.98,50.19,139.33,49.93,138.7z M65.7,153.86c-0.17,0.48-0.27,0.74-0.43,1.17l-0.27-0.65c-0.37,0.99-0.68,2.01-1.13,2.96
	c-0.62,1.32-1.33,2.6-2.04,3.87c-0.32,0.57-0.77,0.93-1.56,0.77c-0.77-0.16-0.87-0.7-1.03-1.28c-0.04-0.1-0.09-0.2-0.15-0.29
	c-0.97,1.57-0.97,1.57-0.21,3.36c-1.07,0.83-2.21,1.11-3.51,0.3c-0.01,0.34-0.02,0.54-0.03,0.81l-1.3-0.27L54,164.66
	c-0.35,0.1-0.71,0.33-1.04,0.28c-0.94-0.15-1.86-0.4-2.78-0.62c0.38,0.27,0.75,0.58,1.16,0.77c0.39,0.18,0.85,0.22,1.29,0.32
	l-0.02,0.25l-3.8-0.16c1.02,0.8,2.07,0.71,3.09,0.72c0.01,0.08,0.02,0.15,0.02,0.22c-0.47,0.11-0.93,0.23-1.39,0.34
	c-0.5,0.11-1.01,0.21-1.7,0.35c1.09,0.57,2.04,0.01,3.2,0.15l-2.2,1.5c0.04,0.08,0.08,0.16,0.13,0.23l1.5-0.63l0.09,0.1l-0.75,0.91
	l1.72-0.57l-0.39,0.88c1.64,0.35,3.09,0.86,4.85,0.56c1.85-0.32,3.29-1.11,4.91-2.2c0.02,0.64,0.04,1.24,0.05,1.84
	c0.02,1,0.29,1.07,1.32,1.09c0.77,0.02,1.47-0.02,2.21-0.25c1.16-0.36,1.68-1.24,2.07-2.26c0.14-0.36,0.26-0.76,0.22-1.13
	c-0.04-0.34-0.33-0.64-0.51-0.96c0.14-0.08,0.12-0.4,0.39-0.56c-0.19-0.39,1.02-0.31,0.82-0.73c-0.56,0.08-2.22-0.08-2.88,0.01
	c0.44-0.64,0.87-1.14,1.17-1.71c0.79-1.47,1.14-3.04,0.89-4.72c-0.14-0.86-0.21-1.73-0.21-2.6l0,0c0.11-0.29,0.05-0.54-0.06-0.82
	l-0.14,0.67c-0.13,0.08,0.03-1.49-0.1-1.4c0.51-1.01-0.41,0.92-0.76,0.76c0.19-0.44-0.03-0.91,0.1-1.21c-0.14,0,0.14,0.03,0,0
	c-0.17,0.35-0.33,0.7-0.48,1.03l-0.19-0.04L65.7,153.86z M31.03,92.03c-0.89-0.1-1.75-0.31-2.69-0.14c-0.77,0.14-1.62-0.17-2.58-0.3
	l0.68,0.82c-0.09,0.05-0.15,0.11-0.19,0.1c-0.65-0.16-1.25-0.72-1.98-0.23l-0.04-0.01l1.39,0.62l-1.46-0.07l1.38,0.75l-0.04-0.02
	l0.12,0.22c-0.1,0.16-0.21,0.31-0.31,0.47l1.48,0.43l-1.34,1.07c0.05,0.09,0.1,0.18,0.15,0.27c0.3-0.14,0.64-0.23,0.9-0.42
	c0.7-0.54,1.29-0.16,1.81,0.25c0.62,0.49,1.14,1.09,1.77,1.7c-0.22,0.8-1.04,1-1.84,1.31c1.01,0.06,1.92,0.67,2.97,0.21
	c0.42-0.18,0.95-0.14,1.43-0.19c2-0.22,3.74-0.87,4.84-2.72c0.26-0.44,0.68-0.78,0.96-1.25l-0.87,0.65
	c-0.04-0.84,0.58-1.84,1.43-2.49c0.01-0.14,0.03-0.28,0.06-0.42l0,0l-0.69-1.46c-0.55,0.5-0.9,0.88-1.31,1.18
	c-0.15,0.11-0.45,0-0.67,0c0.03,0.13,0.05,0.26,0.08,0.39c-0.06,0-0.12-0.01-0.18-0.02c-0.01-0.13,0-0.26,0-0.39l-0.21-1.16h-0.1
	c-0.03,0.39-0.04,0.78-0.03,1.17c0.03,0.5,0.01,0.94-0.44,1.29c-0.43-0.19-0.85-0.33-1.23-0.54c-0.42-0.22-0.82-0.49-1.22-0.73
	C32.37,92.25,31.7,92.11,31.03,92.03z M28.93,109.49l-1.22-0.24l0.6-0.37c-1.03-0.22-2.09-0.37-3.1-0.67
	c-1.4-0.42-2.77-0.92-4.14-1.44c-0.61-0.23-1.04-0.62-1-1.42c0.04-0.8,0.56-0.97,1.11-1.22c0.1-0.06,0.19-0.12,0.27-0.19
	c-1.7-0.73-1.7-0.73-3.35,0.29c-0.98-0.93-1.43-2.01-0.83-3.43l-0.8,0.09c0.02-0.46,0.05-0.89,0.07-1.33l-0.06-0.02
	c-0.15-0.33-0.43-0.66-0.43-0.98c0-0.95,0.12-1.9,0.19-2.85c-0.21,0.42-0.46,0.82-0.59,1.27c-0.12,0.42-0.08,0.88-0.12,1.32
	l-0.25,0.02c-0.13-1.18-0.26-2.36-0.42-3.78c-0.64,1.12-0.39,2.15-0.25,3.17l-0.22,0.06c-0.18-0.44-0.37-0.88-0.54-1.33
	c-0.18-0.48-0.36-0.97-0.6-1.63c-0.4,1.16,0.3,2.02,0.33,3.19l-1.82-1.95l-0.21,0.16l0.85,1.38l-0.09,0.1l-1.01-0.6l0.83,1.62
	l-0.93-0.25c-0.1,1.67-0.39,3.19,0.18,4.88c0.6,1.78,1.6,3.08,2.92,4.52c-0.63,0.11-1.22,0.23-1.81,0.33
	c-0.99,0.17-1.03,0.44-0.89,1.46c0.1,0.76,0.24,1.45,0.58,2.15c0.53,1.09,1.48,1.48,2.55,1.7c0.37,0.08,0.8,0.15,1.14,0.04
	c0.33-0.09,0.58-0.42,0.87-0.65c0.1,0.12,0.42,0.05,0.61,0.3c0.36-0.24,0.47,0.97,0.85,0.7c-0.16-0.53-0.25-2.2-0.44-2.84
	c0.7,0.34,1.26,0.69,1.87,0.9c1.57,0.56,3.18,0.66,4.8,0.17c0.83-0.26,1.68-0.46,2.53-0.6l0,0c0.31,0.06,0.54-0.03,0.81-0.18
	l-0.68-0.04c-0.1-0.11,1.47-0.2,1.37-0.31c1.07,0.36-0.97-0.27-0.87-0.64c0.46,0.12,0.89-0.17,1.21-0.08c-0.02-0.14-0.01,0.14,0,0
	l-1.09-0.32c0-0.07,0-0.13,0.01-0.19L28.93,109.49z M42.78,120.82l-0.25,0.09l0.03,0.02l-0.49,0.57c0.01-0.7,0.16-1.45-0.02-2.11
	c-0.18-0.7-0.24-1.28,0.15-1.89c0.02-0.03-0.04-0.11-0.07-0.18l-0.96,0.15l0.97-1.28l-0.2-0.18l-1.71,1.14l1.09-2.1l-0.2-0.11
	l-1.28,1.11l-0.1,0.32l-0.04,0.06l0.02-0.04l0.16-0.32l0.48-1.29c-1.9,0.25-2.09,1.9-2.77,3.17l-0.35-0.48l0.03,0.02
	c-0.09,0.39-0.17,0.79-0.26,1.18c-0.13,0.55-0.1,1.21-0.42,1.61c-0.91,1.14-0.71,2.31-0.39,3.54c0.1,0.36,0.23,0.71,0.32,1.08
	c0.14,0.57,0,0.99-0.68,0.97c-1.39-0.04-1.73,1.25-2.61,1.88c2.28-0.56,4.26,0.34,6.4,0.97c-1.03,0.73-1.01,0.91,0.05,1.59l2.5-2.31
	c0.94,0.28,1.86,0.59,2.8,0.81c0.83,0.2,1.23-0.06,1.53-0.86c0.33-0.84-0.38-2.09-1.45-2.51c-0.78-0.31-1.56-0.6-2.43-0.93
	c0.14-0.43,0.14-0.97,0.41-1.22c1.18-1.07,0.72-2.28,0.46-3.5l0.04,0.02l-0.8,1.04L42.78,120.82z M40.34,129.03l0.04,0.23
	l-0.71,0.18l-0.06-0.32L40.34,129.03z M37.91,244.99c0.62,0.16,1.25,0.29,1.86,0.5c0.56,0.18,1.09,0.44,1.68,0.7
	c0.09,0.77-0.33,1.2-0.83,1.64c-0.39,0.35-0.77,0.73-1.11,1.13c0.04,0.03,0.07,0.07,0.11,0.11l1.33-0.89
	c0.12-0.12,0.24-0.25,0.37-0.37c0.01-0.01,0.12,0.1,0.19,0.15l-0.45,0.29c0.22,0.22,0.6,0.41,0.63,0.65c0.1,0.68,0.07,1.38,0.1,2.39
	l2.07-0.71l0,0c0.1-0.16,0.22-0.31,0.35-0.46c-0.18-1.44,0.22-2.98,1.07-3.73c0.07,0.54,0.14,1,0.2,1.46
	c0.19-0.72,0.13-1.45,0.31-2.12c0.76-2.81-0.25-5.11-1.92-7.26c-0.4-0.51-0.93-0.98-1.16-1.57c-0.55-1.45-2-1.75-3.01-2.68
	c0.45,1.07,1.04,2.05,0.47,3.02c-1.19-0.03-2.27,0.02-3.32-0.12c-0.88-0.12-1.81-0.33-1.95-1.52c-0.05-0.43-0.28-0.85-0.43-1.27
	l-0.4,0.11c0.06,0.65,0.13,1.29,0.22,2.31l-1.81-1.02c-0.05,0.25-0.11,0.5-0.16,0.74l-0.32,0.08l0.05,0.02L30,235.94l1.45,1.35
	l-1.92-0.77l0.04,0.03c0.21,1.17,1.33,1.22,2.09,1.71c0.05,0.03,0.04,0.14,0.08,0.27l-1.44,0.12c1.03,0.81,2.13,1.34,2.73,2.23
	c0.73,1.08,1.73,1.71,2.67,2.48C36.42,243.92,37.18,244.44,37.91,244.99z M53.49,275.45l-0.89,1.43c-0.08-0.44-0.14-0.7-0.18-0.94
	c-0.76,1.21-1.46,2.47-2.32,3.61c-1.19,1.58-2.47,3.08-3.77,4.56c-0.58,0.66-1.28,1.03-2.28,0.59c-0.97-0.42-0.96-1.17-1.02-1.98
	c-0.02-0.15-0.06-0.29-0.11-0.43c-1.73,1.81-1.73,1.81-1.21,4.39c-1.65,0.81-3.23,0.86-4.74-0.56c-0.11,0.44-0.18,0.71-0.27,1.06
	l-1.65-0.72l-0.05,0.06c-0.49,0.04-1.03,0.24-1.45,0.08c-1.2-0.46-2.35-1.04-3.52-1.59c0.43,0.46,0.83,0.97,1.33,1.34
	c0.47,0.35,1.07,0.52,1.62,0.77l-0.09,0.33l-4.99-1.25c1.12,1.34,2.55,1.51,3.89,1.81c-0.01,0.1-0.02,0.2-0.03,0.3
	c-0.65,0.02-1.29,0.05-1.95,0.06c-0.7,0.01-1.39,0-2.35-0.01c1.28,1.05,2.69,0.58,4.2,1.08l-3.34,1.38l0.1,0.35l2.16-0.43l0.08,0.16
	l-1.24,1l2.45-0.29l-0.76,1.06c2.08,0.92,3.86,2,6.27,2.08c2.54,0.09,4.66-0.58,7.1-1.56c-0.15,0.85-0.29,1.65-0.44,2.45
	c-0.25,1.33,0.08,1.49,1.44,1.81c1.02,0.23,1.95,0.38,2.99,0.28c1.63-0.15,2.57-1.18,3.36-2.42c0.28-0.44,0.56-0.94,0.6-1.43
	c0.03-0.46-0.26-0.94-0.41-1.41c0.2-0.07,0.26-0.5,0.67-0.64c-0.14-0.57,1.44-0.14,1.29-0.74c-0.75-0.05-2.91-0.72-3.81-0.78
	c0.76-0.72,1.46-1.28,2.03-1.95c1.45-1.73,2.34-3.71,2.48-6c0.06-1.17,0.2-2.34,0.44-3.49l0,0c0.23-0.36,0.22-0.7,0.15-1.11
	l-0.37,0.84c-0.19,0.08,0.44-1.96,0.25-1.89c0.96-1.19-0.8,1.11-1.22,0.8c0.38-0.53,0.21-1.21,0.47-1.57c-0.18-0.04,0.18,0.08,0,0
	c-0.32,0.42-0.62,0.83-0.92,1.23l-0.24-0.1C53.32,276.63,53.38,276.19,53.49,275.45L53.49,275.45z M30,264.89l-0.3-0.2v0.05
	l-1.01-0.04c0.76-0.57,1.68-1.03,2.24-1.76c0.59-0.77,1.17-1.31,2.14-1.4c0.05,0,0.08-0.14,0.13-0.23l-0.96-0.9l2.17-0.02l0.04-0.35
	l-2.63-0.89l3.16-0.58l-0.05-0.31l-2.25-0.45l-0.42,0.16l-0.1,0.01l0.05-0.01l0.47-0.1l1.78-0.56c-1.84-1.82-3.76-0.66-5.68-0.34
	c0.11-0.39,0.17-0.58,0.22-0.76v0.05c-0.49,0.24-0.99,0.47-1.48,0.7c-0.69,0.32-1.38,0.9-2.07,0.88c-1.97-0.03-3.06,1.16-4.1,2.51
	c-0.31,0.4-0.57,0.83-0.89,1.23c-0.49,0.61-1.05,0.82-1.6,0.07c-1.1-1.52-2.78-0.81-4.17-1.23c2.49,1.98,3.17,4.83,4.25,7.65
	c-1.64-0.5-1.81-0.32-1.67,1.37l4.54,0.76c0.49,1.24,0.91,2.48,1.45,3.67c0.48,1.05,1.09,1.26,2.19,0.93
	c1.17-0.35,1.91-2.14,1.48-3.63c-0.31-1.09-0.66-2.17-1.02-3.36c0.57-0.22,1.16-0.66,1.64-0.58c2.12,0.38,3.04-1.11,4.13-2.4
	l0.01,0.06l-1.77,0.01L30,264.89z M19.2,269.09l-0.21,0.23l-0.77-0.61l0.29-0.33L19.2,269.09z M2.42,218.81l-0.51,0.52l-0.02-0.03
	c0.35,0.01,0.57-0.11,0.52-0.51L2.42,218.81z M3.05,218.62l0.03-0.01L3.05,218.62z"/>
</svg>
