<?xml version="1.0" encoding="UTF-8" standalone="no"?>
<svg
   xmlns:dc="http://purl.org/dc/elements/1.1/"
   xmlns:cc="http://creativecommons.org/ns#"
   xmlns:rdf="http://www.w3.org/1999/02/22-rdf-syntax-ns#"
   xmlns:svg="http://www.w3.org/2000/svg"
   xmlns="http://www.w3.org/2000/svg"
   viewBox="0 0 400 400"
   height="400"
   width="400"
   xml:space="preserve"
   id="svg2"
   version="1.1"><metadata
     id="metadata8"><rdf:RDF><cc:Work
         rdf:about=""><dc:format>image/svg+xml</dc:format><dc:type
           rdf:resource="http://purl.org/dc/dcmitype/StillImage" /></cc:Work></rdf:RDF></metadata><defs
     id="defs6"><clipPath
       id="clipPath18"
       clipPathUnits="userSpaceOnUse"><path
         id="path16"
         d="M 0,300 H 300 V 0 H 0 Z" /></clipPath></defs><g
     transform="matrix(1.3333333,0,0,-1.3333333,0,400)"
     id="g10"><g
       id="g12"><g
         clip-path="url(#clipPath18)"
         id="g14"><g
           transform="translate(80.1924,82.0137)"
           id="g20"><path
             id="path22"
             style="fill:#373535;fill-opacity:1;fill-rule:nonzero;stroke:none"
             d="m 0,0 0.026,0.014 z m -0.633,-0.184 -0.509,-0.524 -0.015,0.03 c 0.352,-0.011 0.566,0.114 0.517,0.508 z m 16.781,-50.286 -0.209,-0.226 -0.772,0.609 0.29,0.333 z m 10.801,4.203 -0.303,0.197 v -0.046 l -1.013,0.044 c 0.757,0.573 1.679,1.032 2.242,1.764 0.591,0.77 1.169,1.314 2.138,1.404 0.049,0 0.083,0.139 0.128,0.225 l -0.956,0.901 2.167,0.023 0.039,0.352 -2.633,0.887 3.156,0.582 -0.046,0.307 -2.249,0.444 -0.417,-0.157 -0.099,-0.012 0.054,0.011 0.473,0.099 1.779,0.556 c -1.839,1.825 -3.755,0.663 -5.676,0.335 0.114,0.39 0.168,0.577 0.223,0.764 v -0.05 c -0.494,-0.235 -0.986,-0.474 -1.483,-0.695 -0.687,-0.316 -1.382,-0.897 -2.066,-0.885 -1.97,0.03 -3.06,-1.156 -4.103,-2.514 -0.307,-0.401 -0.571,-0.835 -0.887,-1.23 -0.494,-0.613 -1.053,-0.819 -1.599,-0.071 -1.104,1.516 -2.781,0.815 -4.172,1.235 2.487,-1.977 3.167,-4.831 4.252,-7.649 -1.636,0.497 -1.808,0.321 -1.669,-1.372 l 4.535,-0.763 c 0.486,-1.239 0.914,-2.48 1.455,-3.669 0.48,-1.054 1.088,-1.26 2.186,-0.931 1.17,0.351 1.911,2.138 1.484,3.633 -0.311,1.089 -0.655,2.169 -1.018,3.362 0.574,0.217 1.157,0.665 1.643,0.579 2.116,-0.38 3.04,1.112 4.13,2.403 l 0.014,-0.058 -1.772,-0.008 z m 23.491,-10.558 -0.886,-1.433 c -0.085,0.443 -0.139,0.695 -0.179,0.939 -0.765,-1.208 -1.459,-2.47 -2.317,-3.608 -1.186,-1.576 -2.473,-3.081 -3.775,-4.564 -0.581,-0.664 -1.276,-1.027 -2.275,-0.591 -0.973,0.417 -0.964,1.171 -1.018,1.976 -0.024,0.147 -0.063,0.292 -0.114,0.431 -1.728,-1.808 -1.728,-1.808 -1.21,-4.386 -1.648,-0.807 -3.228,-0.859 -4.738,0.566 -0.112,-0.444 -0.18,-0.714 -0.266,-1.061 l -1.652,0.72 -0.048,-0.062 c -0.486,-0.039 -1.034,-0.239 -1.447,-0.082 -1.201,0.456 -2.351,1.043 -3.517,1.586 0.432,-0.461 0.834,-0.973 1.328,-1.342 0.471,-0.349 1.072,-0.522 1.616,-0.772 l -0.095,-0.331 -4.99,1.252 c 1.124,-1.336 2.545,-1.51 3.894,-1.809 -0.009,-0.099 -0.019,-0.201 -0.03,-0.301 -0.647,-0.021 -1.295,-0.052 -1.948,-0.059 -0.695,-0.008 -1.39,0 -2.347,0.009 1.282,-1.053 2.694,-0.577 4.2,-1.083 l -3.338,-1.379 0.105,-0.346 2.155,0.427 0.085,-0.161 -1.24,-0.999 2.45,0.294 -0.763,-1.063 c 2.074,-0.916 3.859,-1.996 6.269,-2.078 2.543,-0.086 4.662,0.576 7.101,1.564 -0.153,-0.852 -0.29,-1.653 -0.441,-2.451 -0.249,-1.327 0.085,-1.494 1.443,-1.808 1.015,-0.233 1.954,-0.381 2.991,-0.278 1.629,0.153 2.569,1.174 3.359,2.421 0.278,0.435 0.556,0.939 0.596,1.43 0.035,0.457 -0.257,0.939 -0.405,1.414 0.204,0.069 0.261,0.496 0.673,0.636 -0.14,0.565 1.443,0.139 1.293,0.738 -0.751,0.052 -2.914,0.722 -3.813,0.783 0.763,0.725 1.464,1.276 2.026,1.948 1.452,1.729 2.343,3.712 2.481,6.002 0.057,1.173 0.204,2.341 0.439,3.494 0.227,0.359 0.22,0.695 0.152,1.112 l -0.374,-0.842 c -0.189,-0.076 0.443,1.963 0.253,1.886 0.958,1.193 -0.798,-1.112 -1.224,-0.801 0.377,0.527 0.211,1.21 0.468,1.571 -0.176,0.042 0.176,-0.079 0,0 -0.316,-0.417 -0.622,-0.834 -0.924,-1.231 l -0.242,0.1 c 0.071,0.438 0.132,0.879 0.239,1.627 z m -15.576,30.457 c 0.623,-0.159 1.251,-0.294 1.862,-0.495 0.556,-0.184 1.089,-0.444 1.677,-0.696 0.089,-0.767 -0.327,-1.198 -0.834,-1.642 -0.394,-0.355 -0.766,-0.733 -1.113,-1.133 0.036,-0.033 0.069,-0.071 0.106,-0.107 l 1.325,0.885 c 0.121,0.124 0.239,0.255 0.371,0.367 0.013,0.009 0.124,-0.101 0.191,-0.155 l -0.453,-0.285 c 0.221,-0.217 0.596,-0.409 0.634,-0.654 0.104,-0.678 0.068,-1.376 0.097,-2.385 l 2.07,0.712 c 0.103,0.161 0.219,0.313 0.346,0.456 -0.175,1.438 0.215,2.978 1.071,3.734 0.072,-0.537 0.139,-0.997 0.196,-1.457 0.186,0.718 0.127,1.45 0.306,2.116 0.759,2.806 -0.248,5.112 -1.918,7.259 -0.401,0.515 -0.935,0.984 -1.156,1.569 -0.548,1.445 -1.998,1.753 -3.008,2.684 0.452,-1.069 1.036,-2.049 0.469,-3.023 -1.188,0.032 -2.266,-0.023 -3.319,0.116 -0.879,0.116 -1.807,0.33 -1.947,1.522 -0.05,0.434 -0.278,0.847 -0.432,1.27 l -0.399,-0.108 c 0.062,-0.649 0.125,-1.295 0.222,-2.308 l -1.815,1.023 c -0.054,-0.247 -0.107,-0.495 -0.161,-0.741 l -0.324,-0.085 0.05,-0.02 -2.025,0.631 1.446,-1.355 -1.916,0.767 0.043,-0.03 c 0.211,-1.168 1.328,-1.22 2.095,-1.709 0.046,-0.029 0.043,-0.139 0.08,-0.269 l -1.439,-0.116 c 1.03,-0.81 2.133,-1.345 2.726,-2.225 0.725,-1.078 1.734,-1.712 2.673,-2.477 0.713,-0.569 1.471,-1.089 2.203,-1.636 m 2.431,115.958 0.038,-0.225 -0.706,-0.175 -0.064,0.321 z m 2.436,8.216 -0.252,-0.089 0.028,-0.018 -0.485,-0.572 c 0.008,0.695 0.159,1.448 -0.015,2.11 -0.182,0.695 -0.238,1.278 0.147,1.886 0.02,0.029 -0.044,0.112 -0.073,0.176 l -0.959,-0.152 0.974,1.277 -0.199,0.182 -1.707,-1.141 1.095,2.103 -0.199,0.112 -1.279,-1.112 -0.099,-0.32 -0.038,-0.064 0.018,0.037 0.156,0.321 0.478,1.294 c -1.898,-0.249 -2.086,-1.896 -2.766,-3.165 l -0.346,0.475 0.032,-0.018 c -0.086,-0.395 -0.17,-0.791 -0.26,-1.185 -0.127,-0.545 -0.103,-1.214 -0.418,-1.608 -0.91,-1.137 -0.711,-2.312 -0.389,-3.536 0.096,-0.362 0.231,-0.712 0.317,-1.075 0.139,-0.568 0,-0.988 -0.682,-0.974 -1.392,0.041 -1.735,-1.251 -2.61,-1.876 2.284,0.556 4.259,-0.336 6.398,-0.974 -1.032,-0.731 -1.01,-0.913 0.048,-1.593 l 2.504,2.306 c 0.944,-0.279 1.864,-0.59 2.804,-0.813 0.834,-0.196 1.229,0.064 1.529,0.856 0.326,0.844 -0.383,2.086 -1.45,2.513 -0.778,0.311 -1.565,0.599 -2.427,0.928 0.139,0.433 0.139,0.973 0.408,1.222 1.179,1.065 0.721,2.284 0.464,3.502 l 0.041,-0.018 -0.797,-1.038 z m -13.852,11.325 -1.222,0.243 0.605,0.367 c -1.035,0.217 -2.086,0.373 -3.097,0.674 -1.399,0.417 -2.774,0.916 -4.138,1.435 -0.61,0.232 -1.042,0.62 -0.999,1.424 0.043,0.804 0.565,0.974 1.113,1.215 0.095,0.056 0.186,0.119 0.27,0.191 -1.703,0.729 -1.703,0.729 -3.352,-0.294 -0.985,0.932 -1.428,2.014 -0.834,3.427 l -0.803,-0.089 c 0.024,0.459 0.047,0.895 0.071,1.331 l -0.055,0.017 c -0.152,0.327 -0.433,0.655 -0.43,0.982 0,0.948 0.115,1.897 0.19,2.845 -0.208,-0.417 -0.46,-0.824 -0.588,-1.267 -0.12,-0.417 -0.084,-0.877 -0.117,-1.318 l -0.254,-0.02 c -0.131,1.184 -0.262,2.365 -0.418,3.781 -0.635,-1.124 -0.387,-2.152 -0.246,-3.167 l -0.218,-0.057 c -0.181,0.443 -0.369,0.884 -0.543,1.331 -0.185,0.48 -0.356,0.965 -0.599,1.628 -0.398,-1.161 0.296,-2.015 0.334,-3.189 l -1.817,1.947 -0.211,-0.162 0.853,-1.383 -0.091,-0.1 -1.012,0.601 0.834,-1.622 -0.933,0.255 c -0.097,-1.669 -0.385,-3.189 0.181,-4.881 0.596,-1.782 1.602,-3.08 2.92,-4.515 -0.628,-0.115 -1.219,-0.225 -1.808,-0.328 -0.993,-0.166 -1.026,-0.44 -0.887,-1.461 0.1,-0.764 0.241,-1.453 0.576,-2.146 0.527,-1.089 1.478,-1.477 2.545,-1.701 0.373,-0.079 0.796,-0.146 1.145,-0.044 0.325,0.094 0.584,0.417 0.874,0.647 0.102,-0.124 0.418,-0.053 0.615,-0.304 0.356,0.245 0.466,-0.965 0.847,-0.703 -0.159,0.532 -0.254,2.204 -0.444,2.844 0.696,-0.342 1.263,-0.686 1.871,-0.903 1.573,-0.556 3.177,-0.663 4.8,-0.168 0.827,0.264 1.675,0.464 2.533,0.598 0.308,-0.064 0.541,0.028 0.807,0.182 l -0.68,0.04 c -0.102,0.113 1.475,0.201 1.373,0.313 1.074,-0.356 -0.974,0.266 -0.871,0.64 0.462,-0.124 0.891,0.167 1.207,0.082 -0.015,0.139 -0.006,-0.139 0,0 l -1.09,0.321 c 0,0.066 0,0.13 0.007,0.195 z m 2.104,17.461 c -0.89,0.103 -1.745,0.311 -2.691,0.139 -0.77,-0.139 -1.623,0.171 -2.584,0.302 l 0.682,-0.824 c -0.092,-0.048 -0.146,-0.105 -0.186,-0.096 -0.653,0.156 -1.252,0.721 -1.985,0.231 l -0.038,0.009 1.391,-0.624 -1.465,0.071 1.379,-0.749 -0.036,0.015 0.122,-0.215 c -0.104,-0.156 -0.207,-0.312 -0.31,-0.468 l 1.475,-0.432 -1.338,-1.07 c 0.049,-0.09 0.1,-0.179 0.148,-0.268 0.302,0.139 0.64,0.226 0.896,0.417 0.703,0.54 1.294,0.16 1.807,-0.247 0.617,-0.487 1.143,-1.088 1.771,-1.701 -0.224,-0.803 -1.044,-0.998 -1.844,-1.308 1.014,-0.055 1.925,-0.667 2.972,-0.214 0.424,0.185 0.949,0.139 1.428,0.195 1.999,0.22 3.741,0.873 4.84,2.722 0.26,0.438 0.68,0.781 0.964,1.251 l -0.875,-0.646 c -0.039,0.844 0.577,1.842 1.43,2.49 0.012,0.141 0.033,0.28 0.064,0.418 l -0.688,1.464 c -0.55,-0.503 -0.902,-0.883 -1.315,-1.177 -0.149,-0.105 -0.445,0 -0.673,0 0.027,-0.129 0.054,-0.258 0.081,-0.386 -0.061,10e-4 -0.121,0.008 -0.18,0.021 -0.008,0.128 0,0.257 0,0.385 l -0.212,1.16 h -0.096 c -0.035,-0.39 -0.045,-0.782 -0.031,-1.172 0.028,-0.5 0.014,-0.942 -0.44,-1.291 -0.432,0.186 -0.845,0.334 -1.229,0.535 -0.417,0.22 -0.816,0.486 -1.221,0.733 -0.676,0.114 -1.341,0.253 -2.013,0.33 M 62.654,64.766 c -0.174,-0.481 -0.27,-0.744 -0.425,-1.17 l -0.272,0.652 c -0.371,-0.99 -0.683,-2.009 -1.132,-2.961 -0.623,-1.318 -1.325,-2.602 -2.044,-3.873 -0.322,-0.568 -0.769,-0.935 -1.558,-0.772 -0.768,0.16 -0.875,0.704 -1.035,1.278 -0.041,0.102 -0.09,0.201 -0.148,0.295 -0.974,-1.571 -0.974,-1.571 -0.215,-3.358 -1.071,-0.835 -2.205,-1.112 -3.514,-0.304 -0.014,-0.339 -0.022,-0.544 -0.034,-0.807 l -1.303,0.27 -0.025,-0.051 c -0.346,-0.101 -0.713,-0.33 -1.036,-0.278 -0.937,0.15 -1.858,0.401 -2.782,0.617 0.383,-0.269 0.746,-0.578 1.165,-0.771 0.393,-0.181 0.853,-0.216 1.285,-0.315 l -0.018,-0.253 -3.801,0.155 c 1.015,-0.798 2.069,-0.709 3.093,-0.722 0.008,-0.075 0.017,-0.148 0.023,-0.223 -0.465,-0.113 -0.929,-0.233 -1.39,-0.336 -0.504,-0.11 -1.009,-0.207 -1.701,-0.348 1.088,-0.568 2.037,-0.011 3.198,-0.149 L 46.781,49.84 c 0.042,-0.078 0.085,-0.156 0.128,-0.235 l 1.495,0.635 0.086,-0.104 -0.746,-0.909 1.723,0.574 -0.392,-0.885 c 1.641,-0.349 3.094,-0.862 4.85,-0.557 1.854,0.322 3.288,1.114 4.906,2.203 0.018,-0.639 0.039,-1.24 0.05,-1.84 0.019,-0.998 0.286,-1.069 1.315,-1.089 0.771,-0.016 1.473,0.018 2.209,0.246 1.156,0.355 1.683,1.239 2.067,2.258 0.139,0.357 0.264,0.765 0.216,1.126 -0.044,0.336 -0.328,0.64 -0.508,0.962 0.139,0.081 0.115,0.399 0.392,0.556 -0.187,0.388 1.025,0.315 0.824,0.73 -0.556,-0.076 -2.218,0.082 -2.878,-0.008 0.443,0.64 0.868,1.144 1.173,1.712 0.79,1.472 1.137,3.04 0.891,4.719 -0.136,0.859 -0.206,1.727 -0.209,2.596 0.11,0.293 0.054,0.538 -0.057,0.825 l -0.139,-0.667 c -0.127,-0.083 0.025,1.489 -0.102,1.404 0.513,1.009 -0.41,-0.922 -0.764,-0.764 0.193,0.438 -0.031,0.907 0.101,1.206 -0.139,0 0.139,-0.029 0,0 -0.165,-0.351 -0.326,-0.695 -0.483,-1.03 l -0.19,0.037 z M 46.887,79.925 c -0.334,0.834 -0.556,1.681 -1.161,2.43 -0.49,0.611 -0.625,1.508 -0.974,2.414 -0.163,-0.404 -0.278,-0.686 -0.399,-0.992 -0.086,0.057 -0.162,0.078 -0.173,0.117 -0.175,0.648 0.032,1.448 -0.745,1.855 l -0.011,0.036 c 0.04,-0.507 0.079,-1.014 0.119,-1.521 l -0.638,1.318 v -1.568 0.038 c -0.045,-0.069 -0.088,-0.139 -0.131,-0.21 l -0.556,0.049 c 0.092,-0.428 0.185,-0.862 0.324,-1.506 l -1.58,0.665 -0.165,-0.259 c 0.266,-0.198 0.506,-0.454 0.801,-0.584 0.811,-0.36 0.759,-1.06 0.648,-1.705 -0.139,-0.775 -0.409,-1.523 -0.648,-2.365 -0.812,-0.186 -1.376,0.441 -2.031,0.995 0.435,-0.917 0.334,-2.01 1.234,-2.714 0.364,-0.278 0.577,-0.765 0.854,-1.159 1.149,-1.651 2.554,-2.87 4.703,-2.95 0.509,-0.02 1.013,-0.224 1.561,-0.249 l -0.986,0.459 c 0.723,0.437 1.894,0.374 2.87,-0.064 0.13,0.055 0.263,0.102 0.4,0.139 l 0.956,1.304 c -0.703,0.242 -1.205,0.371 -1.669,0.593 -0.164,0.08 -0.217,0.388 -0.321,0.591 l -0.302,-0.256 c -0.028,0.053 -0.05,0.109 -0.067,0.167 0.111,0.067 0.224,0.128 0.341,0.182 l 0.915,0.742 c -0.016,0.033 -0.036,0.065 -0.051,0.097 -0.359,-0.156 -0.708,-0.335 -1.045,-0.535 -0.425,-0.264 -0.82,-0.461 -1.343,-0.23 -0.045,0.468 -0.111,0.902 -0.118,1.335 -0.007,0.474 0.036,0.95 0.06,1.424 -0.219,0.638 -0.419,1.288 -0.672,1.917 m -20.319,55.041 -0.071,-0.319 -0.703,0.191 0.045,0.224 z m -2.954,8.334 -0.772,1.057 0.04,0.017 c -0.286,-1.212 -0.772,-2.42 0.383,-3.513 0.264,-0.25 0.253,-0.794 0.377,-1.231 -0.87,-0.307 -1.669,-0.577 -2.448,-0.869 -1.077,-0.402 -1.808,-1.629 -1.509,-2.478 0.278,-0.799 0.674,-1.07 1.513,-0.892 0.944,0.2 1.87,0.49 2.822,0.744 l 2.443,-2.364 c 1.074,0.655 1.1,0.834 0.087,1.592 2.148,0.59 4.144,1.437 6.414,0.826 -0.861,0.642 -1.178,1.948 -2.565,1.936 -0.684,0 -0.808,0.417 -0.659,0.984 0.094,0.36 0.239,0.707 0.342,1.066 0.351,1.218 0.579,2.387 -0.305,3.546 -0.307,0.402 -0.266,1.069 -0.381,1.617 -0.082,0.396 -0.155,0.794 -0.232,1.19 l 0.032,0.018 -0.356,-0.467 c -0.648,1.284 -0.798,2.936 -2.691,3.23 l 0.448,-1.305 0.149,-0.325 0.016,-0.036 -0.036,0.064 -0.092,0.322 -1.251,1.142 -0.203,-0.107 1.039,-2.134 -1.677,1.184 -0.194,-0.181 c 0.278,-0.389 0.563,-0.78 0.938,-1.299 l -0.956,0.174 c -0.029,-0.062 -0.096,-0.139 -0.077,-0.174 0.371,-0.616 0.302,-1.2 0.103,-1.888 -0.189,-0.658 -0.057,-1.408 -0.065,-2.109 l -0.473,0.583 0.031,0.016 -0.25,0.095 z m 22.454,-31.034 c 0.245,0.407 0.474,0.824 0.745,1.212 0.249,0.356 0.545,0.678 0.844,1.043 0.564,-0.101 0.781,-0.486 0.985,-0.942 0.168,-0.354 0.358,-0.697 0.567,-1.027 0.032,0.018 0.066,0.033 0.099,0.052 l -0.346,1.126 c -0.063,0.113 -0.129,0.224 -0.181,0.341 0,0.011 0.099,0.067 0.15,0.101 0.036,-0.126 0.071,-0.255 0.106,-0.381 0.2,0.111 0.417,0.335 0.598,0.31 0.502,-0.069 0.99,-0.243 1.709,-0.438 -0.023,0.609 -0.043,1.082 -0.065,1.618 -0.091,0.108 -0.175,0.222 -0.251,0.342 -1.055,0.182 -2.062,0.784 -2.417,1.552 l 1.076,-0.171 c -0.469,0.278 -1,0.397 -1.435,0.666 -1.826,1.134 -3.672,0.91 -5.548,0.184 -0.45,-0.174 -0.895,-0.454 -1.357,-0.486 -1.139,-0.08 -1.668,-1.043 -2.539,-1.56 0.852,0.093 1.669,0.299 2.24,-0.31 -0.278,-0.835 -0.465,-1.609 -0.787,-2.326 -0.268,-0.598 -0.617,-1.208 -1.49,-1.052 -0.319,0.056 -0.66,-0.021 -0.991,-0.037 l -0.009,-0.307 1.682,-0.333 -1.113,-1.061 0.49,-0.278 -0.008,-0.247 0.025,0.032 -0.878,-1.301 1.267,0.736 -0.948,-1.193 0.029,0.023 c 0.872,-0.098 1.147,0.682 1.655,1.113 0.03,0.026 0.104,0 0.209,0 -0.07,-0.321 -0.139,-0.621 -0.224,-1.044 0.791,0.556 1.404,1.225 2.152,1.457 0.917,0.278 1.58,0.865 2.322,1.367 0.565,0.388 1.093,0.814 1.637,1.219 m -42.451,71.532 -0.114,-0.197 -0.653,0.32 0.157,0.286 z m 7.145,4.729 -0.249,0.095 0.009,-0.034 -0.738,-0.125 c 0.456,0.533 1.051,1.008 1.343,1.626 0.307,0.649 0.64,1.132 1.324,1.35 0.035,0.01 0.038,0.116 0.057,0.183 l -0.834,0.5 1.562,0.356 -0.027,0.262 -2.042,0.219 2.19,0.916 -0.081,0.213 -1.694,-0.03 -0.278,-0.181 -0.07,-0.025 0.038,0.017 0.326,0.146 1.198,0.684 c -1.616,1.03 -2.819,-0.111 -4.154,-0.648 0.021,0.299 0.031,0.442 0.041,0.587 l 0.012,-0.036 c -0.32,-0.247 -0.637,-0.497 -0.961,-0.74 -0.446,-0.337 -0.858,-0.864 -1.353,-0.963 -1.429,-0.286 -2.031,-1.315 -2.57,-2.461 -0.161,-0.337 -0.279,-0.695 -0.448,-1.026 -0.262,-0.522 -0.633,-0.759 -1.145,-0.302 -1.036,0.922 -2.135,0.153 -3.198,0.238 2.106,-1.039 3.045,-2.994 4.271,-4.856 -1.261,0.103 -1.362,-0.051 -0.988,-1.251 l 3.389,0.157 c 0.547,-0.819 1.05,-1.648 1.627,-2.423 0.512,-0.685 0.984,-0.74 1.726,-0.329 0.785,0.439 1.046,1.848 0.507,2.86 -0.395,0.737 -0.814,1.465 -1.263,2.27 0.381,0.246 0.732,0.662 1.096,0.675 1.59,0.058 2.021,1.286 2.608,2.384 l 0.019,-0.04 -1.28,-0.278 z M 48.784,27.42 l 0.058,0.695 -0.278,0.013 c 0,-0.232 -0.007,-0.464 -0.011,-0.695 z m -12.549,9.338 c 0.841,-0.139 1.706,-0.127 2.449,-0.417 2.741,-1.098 5.449,-2.277 8.153,-3.468 1.023,-0.449 1.292,-0.434 1.587,0.668 0.278,1.014 0.91,1.65 1.723,2.19 1.054,0.696 2.114,1.391 3.169,2.086 l -0.022,-0.034 c 0.98,0.198 1.733,0.732 2.409,1.407 0.038,-0.071 0.102,-0.126 0.179,-0.15 0.123,-0.041 0.251,-0.067 0.38,-0.079 l -0.556,-0.37 0.079,-0.139 0.796,0.404 -0.058,0.099 c 0.174,0.013 0.345,0.044 0.511,0.095 l 1.293,0.278 c 0.572,-0.797 0.056,-1.252 -0.612,-1.716 l 0.045,-0.12 C 57.738,37.49 57.716,37.486 57.694,37.481 57.61,37.451 57.542,37.39 57.504,37.309 55.372,36.381 54.113,34.771 52.903,33.108 52.583,32.661 51.958,32.39 52.087,31.685 h -0.041 l -0.864,-0.906 1.129,-1.212 c -0.136,-0.297 -0.227,-0.614 -0.271,-0.938 -0.279,0.092 -0.632,0.065 -1.05,-0.101 -0.677,-0.267 -1.649,-0.347 -1.85,-1.328 -0.028,-0.138 0.179,-0.318 0.278,-0.479 l -0.755,-0.252 c 0.001,-0.007 0.001,-0.015 0,-0.023 -0.01,0.004 -0.019,0.007 -0.029,0.009 l 0.012,0.017 -0.497,0.264 -0.026,0.07 c 0.003,0.05 -0.004,0.102 -0.022,0.15 -0.113,0.309 -0.205,0.623 -0.317,0.93 -0.035,0.108 -0.122,0.19 -0.232,0.218 -0.629,1.122 -1.21,1.443 -1.997,1.141 0.049,1.994 -0.206,2.4 -2.176,3.037 -1.2,0.39 -2.429,0.696 -3.657,0.987 -1.704,0.399 -3.281,1.908 -3.487,3.489 M 18.73,205.243 c 0,0.197 0,0.396 -0.009,0.593 l -0.238,-0.011 c 0.016,-0.197 0.032,-0.393 0.049,-0.591 z m 7.535,4.977 c -1.048,-0.249 -2.097,-0.509 -3.119,-0.834 -1.68,-0.546 -1.898,-0.89 -1.855,-2.592 -0.672,0.258 -1.168,-0.016 -1.704,-0.973 -0.093,-0.023 -0.168,-0.093 -0.197,-0.185 -0.096,-0.263 -0.175,-0.531 -0.278,-0.794 -0.015,-0.041 -0.022,-0.084 -0.02,-0.128 l -0.022,-0.06 -0.417,-0.225 c 0.004,-0.004 0.007,-0.009 0.01,-0.014 h -0.025 v 0.018 l -0.644,0.216 c 0.085,0.139 0.261,0.293 0.237,0.409 -0.172,0.834 -1,0.903 -1.578,1.131 -0.279,0.133 -0.595,0.164 -0.894,0.087 -0.039,0.272 -0.115,0.537 -0.227,0.788 0.296,0.317 0.594,0.639 0.962,1.032 l -0.738,0.772 h -0.033 c 0.11,0.603 -0.418,0.835 -0.696,1.216 -1.04,1.407 -2.114,2.788 -3.932,3.578 -0.032,0.069 -0.091,0.122 -0.162,0.148 -0.018,0.004 -0.037,0.007 -0.056,0.009 l 0.039,0.102 c -0.57,0.398 -1.01,0.785 -0.523,1.464 l 1.106,-0.238 c 0.141,-0.043 0.287,-0.07 0.435,-0.08 l -0.047,-0.084 0.677,-0.346 0.068,0.12 -0.48,0.315 c 0.109,0.01 0.217,0.032 0.32,0.067 0.066,0.022 0.121,0.068 0.153,0.128 0.576,-0.576 1.219,-1.03 2.053,-1.2 l -0.018,0.029 c 0.901,-0.592 1.808,-1.182 2.702,-1.779 0.696,-0.46 1.238,-1.004 1.47,-1.869 0.252,-0.939 0.481,-0.952 1.354,-0.569 2.305,1.016 4.615,2.021 6.953,2.957 0.633,0.255 1.37,0.247 2.087,0.362 -0.17,-1.348 -1.517,-2.636 -2.961,-2.978 M 16.41,165.472 c -0.868,-0.221 -1.687,-0.542 -2.643,-0.5 -0.783,0.034 -1.585,-0.386 -2.52,-0.643 0.23,0.368 0.391,0.627 0.556,0.907 -0.095,0.036 -0.158,0.084 -0.196,0.071 -0.626,-0.243 -1.149,-0.882 -1.936,-0.494 l -0.036,-0.014 1.307,0.797 -1.441,-0.264 1.266,0.926 -0.035,-0.02 c 0.031,0.077 0.061,0.154 0.094,0.23 l -0.37,0.417 1.406,0.629 -1.476,0.891 c 0.036,0.096 0.074,0.191 0.11,0.287 0.317,-0.098 0.665,-0.139 0.946,-0.302 0.769,-0.441 1.303,0.014 1.758,0.485 0.545,0.566 0.987,1.231 1.529,1.922 -0.329,0.766 -1.168,0.85 -2.002,1.052 0.997,0.189 1.817,0.916 2.92,0.606 0.445,-0.125 0.958,-0.012 1.441,0 2.011,0.047 3.825,-0.367 5.16,-2.053 0.315,-0.399 0.777,-0.684 1.122,-1.112 l -0.953,0.524 c 0.074,-0.841 0.817,-1.75 1.749,-2.278 0.03,-0.139 0.07,-0.275 0.12,-0.408 -0.162,-0.51 -0.305,-0.962 -0.487,-1.543 -0.612,0.427 -1.011,0.755 -1.461,0.991 -0.162,0.085 -0.442,-0.053 -0.667,-0.089 l 0.029,0.394 c -0.06,-0.008 -0.118,-0.024 -0.175,-0.045 0.008,-0.128 0.033,-0.254 0.054,-0.382 -0.017,-0.392 -0.037,-0.785 -0.057,-1.177 -0.036,0 -0.074,-0.008 -0.108,-0.015 -0.086,0.382 -0.149,0.769 -0.187,1.158 -0.039,0.5 -0.113,0.935 -0.608,1.22 -0.404,-0.242 -0.792,-0.443 -1.147,-0.695 -0.387,-0.278 -0.744,-0.59 -1.113,-0.889 -0.652,-0.196 -1.297,-0.417 -1.949,-0.584" /></g></g></g><text
       id="text26"
       style="font-variant:normal;font-weight:500;font-stretch:normal;font-size:21px;font-family:'quasimoda';-inkscape-font-specification:Quasimoda-Medium;writing-mode:lr-tb;fill:#373535;fill-opacity:1;fill-rule:nonzero;stroke:none"
       transform="matrix(1,0,0,-1,42.6733,83.2813)"><tspan
         id="tspan24"
         y="0"
         x="0 13.734 28.559999 39.858002 52.287899 67.113899 78.726898 87.147903 102.1209 116.1699 127.7829 135.67889 148.9509">corvos.design</tspan></text>
</g></svg>
