<?xml version="1.0" encoding="UTF-8" standalone="no"?>
<svg style="fill-rule:nonzero;clip-rule:evenodd;stroke-linecap:round;stroke-linejoin:round;" xmlns:vectornator="http://vectornator.io" xmlns:xlink="http://www.w3.org/1999/xlink" xmlns="http://www.w3.org/2000/svg" xml:space="preserve" version="1.1" viewBox="0 0 1024 1024">


<g id="" vectornator:layerName="I">
<path stroke="#000000" stroke-width="5" d="M416.644+499.954C416.644+454.044+453.861+416.827+499.771+416.827C545.681+416.827+582.898+454.044+582.898+499.954C582.898+545.864+545.681+583.081+499.771+583.081C453.861+583.081+416.644+545.864+416.644+499.954Z" fill="none" stroke-linecap="round" opacity="1" stroke-linejoin="round"/>
<path stroke="#000000" stroke-width="5" d="M416.644+499.954C416.644+454.044+453.861+416.827+499.771+416.827C545.681+416.827+582.898+454.044+582.898+499.954C582.898+545.864+545.681+583.081+499.771+583.081C453.861+583.081+416.644+545.864+416.644+499.954Z" fill="none" stroke-linecap="round" opacity="1" stroke-linejoin="round"/>
<path d="M498.219+591.875C496.977+591.684+495.816+592.539+495.625+593.781C495.184+596.979+494.938+600.177+494.906+603.406C494.861+608.113+495.217+612.805+495.5+617.5C496.149+628.284+497.286+639.04+499.312+649.656C498.437+641.51+498.028+633.35+498.094+625.156C498.131+620.545+498.429+615.948+498.625+611.344C498.864+605.704+499.177+600.041+500.125+594.469C500.316+593.227+499.461+592.066+498.219+591.875Z" opacity="1" fill="#000000"/>
<path d="M593.844+508.188C592.609+507.954+591.421+508.765+591.188+510C590.954+511.235+591.766+512.422+593+512.656C599.501+513.818+606.073+514.328+612.562+515.562C614.9+516.007+617.218+516.637+619.531+517.188C627.419+519.064+635.19+521.354+642.875+523.938C653.243+527.423+663.066+531.549+671.406+538.812C663.051+530.701+652.839+525.976+642.156+521.719C635.905+519.228+629.571+516.881+623.188+514.75C618.915+513.324+614.56+511.964+610.156+511C604.764+509.82+599.256+509.272+593.844+508.188Z" opacity="1" fill="#000000"/>
<path d="M500.344+345.906C499.911+357.948+499.826+370.001+499.125+382.031C498.896+385.97+498.727+389.93+498.625+393.875C498.547+396.906+498.412+399.481+499.438+402.406C499.872+403.585+501.165+404.184+502.344+403.75C503.523+403.316+504.122+402.023+503.688+400.844C502.635+398.143+502.924+395.252+502.844+392.406C502.76+389.448+502.637+386.454+502.469+383.5C501.753+370.963+500.914+358.452+500.344+345.906Z" opacity="1" fill="#000000"/>
<path d="M569.75+355.688C560.25+366.596+551.339+377.996+542.781+389.656C540.488+392.781+538.264+395.966+536.062+399.156C534.127+401.96+532.324+404.681+531.406+408C531.088+409.215+531.816+410.463+533.031+410.781C534.247+411.1+535.494+410.372+535.812+409.156C536.58+406.022+538.38+403.452+540.062+400.75C541.956+397.708+543.828+394.644+545.656+391.562C553.019+379.155+561.068+367.21+569.75+355.688Z" opacity="1" fill="#000000"/>
<path d="M618.719+394.062C611.016+398.011+603.355+402.016+595.875+406.375C591.068+409.177+586.274+412.084+581.781+415.375C579.379+417.135+577.113+419.104+574.844+421.031C571.121+424.193+567.461+427.474+564.312+431.219C563.517+432.191+563.653+433.61+564.625+434.406C565.597+435.202+567.017+435.066+567.812+434.094C570.432+430.803+573.51+427.948+576.5+425C577.543+423.972+578.543+422.863+579.594+421.844C582.371+419.151+585.248+416.559+588.281+414.156C591.042+411.969+593.943+409.933+596.844+407.938C603.96+403.041+611.325+398.524+618.719+394.062Z" opacity="1" fill="#000000"/>
<path d="M648.75+443.875C636.786+448.511+624.7+452.976+613.344+459C604.891+463.484+597.068+468.981+588.938+474C587.877+474.674+587.545+476.096+588.219+477.156C588.893+478.217+590.314+478.518+591.375+477.844C595.054+475.439+598.674+472.943+602.219+470.344C607.223+466.674+612.165+462.955+617.469+459.719C627.453+453.626+638.173+448.823+648.75+443.875Z" opacity="1" fill="#000000"/>
<path d="M575.469+552.188C574.295+552.636+573.708+553.951+574.156+555.125C577.105+562.594+582.47+568.154+587.531+574.219C594.169+582.172+601.937+589.133+609.406+596.281C615.181+601.807+620.674+607.62+626.281+613.312C621.692+608.073+617.224+602.742+612.531+597.594C605.257+589.613+597.776+581.867+591.281+573.219C589.458+570.791+587.606+568.365+585.781+565.938C582.862+562.055+580.094+558.083+578.406+553.5C577.958+552.326+576.642+551.739+575.469+552.188Z" opacity="1" fill="#000000"/>
<path d="M536.469+580.562C535.294+580.116+533.978+580.701+533.531+581.875C533.085+583.049+533.669+584.366+534.844+584.812C535.092+584.903+535.843+585.227+536.188+585.25C536.497+585.896+536.634+586.584+536.812+587.281C537.194+588.772+537.507+590.247+537.844+591.75C538.71+595.617+539.668+599.487+540.812+603.281C543.144+611.009+545.911+618.583+549.094+626C550.927+630.272+552.756+634.64+555.625+638.344C557.234+640.421+559.238+642.158+561.156+643.938C559.376+642.05+557.518+640.193+556.062+638.031C553.247+633.849+551.69+628.975+550.062+624.25C548.277+619.068+546.702+613.834+545.438+608.5C544.805+605.833+544.28+603.12+543.719+600.438C542.925+596.646+542.304+592.814+541.625+589C541.227+586.763+540.919+583.17+538.969+581.656C538.212+581.069+537.327+580.911+536.469+580.562Z" opacity="1" fill="#000000"/>
<path d="M407.656+509.625C402.244+510.709+396.705+511.226+391.312+512.406C386.909+513.37+382.554+514.761+378.281+516.188C371.442+518.471+364.688+520.993+358+523.688C347.786+527.802+338.082+532.463+330.094+540.219C338.822+532.617+349.153+528.508+360+524.906C367.24+522.502+374.547+520.391+381.969+518.625C384.282+518.075+386.569+517.445+388.906+517C395.396+515.765+401.999+515.256+408.5+514.094C409.735+513.86+410.546+512.672+410.312+511.438C410.079+510.203+408.891+509.391+407.656+509.625Z" opacity="1" fill="#000000"/>
<path d="M501.156+347.344C500.586+359.889+499.747+372.4+499.031+384.938C498.834+388.385+498.699+391.86+498.625+395.312C498.574+397.711+498.666+400.01+497.781+402.281C497.347+403.46+497.977+404.753+499.156+405.188C500.335+405.622+501.628+405.023+502.062+403.844C503.215+400.556+502.941+397.234+502.844+393.812C502.746+390.36+502.576+386.916+502.375+383.469C501.674+371.438+501.589+359.385+501.156+347.344Z" opacity="1" fill="#000000"/>
<path d="M431.75+357.125C437.532+364.798+443.072+372.644+448.281+380.719C451.211+385.26+453.913+389.936+456.75+394.531C458.32+397.074+459.827+399.65+461.406+402.188C463.088+404.889+464.92+407.429+465.688+410.562C466.006+411.778+467.253+412.506+468.469+412.188C469.684+411.869+470.412+410.653+470.094+409.438C469.098+405.839+467.037+402.875+464.938+399.844C462.551+396.398+460.12+392.993+457.625+389.625C449.372+378.485+440.858+367.583+431.75+357.125Z" opacity="1" fill="#000000"/>
<path d="M382.75+395.5C390.144+399.961+397.509+404.479+404.625+409.375C407.526+411.371+410.426+413.406+413.188+415.594C416.221+417.996+419.129+420.589+421.906+423.281C422.957+424.3+423.957+425.378+425+426.406C427.99+429.354+431.037+432.24+433.656+435.531C434.452+436.503+435.903+436.64+436.875+435.844C437.847+435.048+437.983+433.628+437.188+432.656C433.723+428.536+429.651+424.948+425.531+421.5C423.622+419.902+421.728+418.285+419.719+416.812C415.226+413.521+410.432+410.614+405.625+407.812C398.145+403.453+390.452+399.448+382.75+395.5Z" opacity="1" fill="#000000"/>
<path d="M352.75+445.312C363.327+450.26+374.047+455.032+384.031+461.125C389.335+464.361+394.277+468.111+399.281+471.781C402.826+474.381+406.446+476.876+410.125+479.281C411.185+479.955+412.576+479.654+413.25+478.594C413.924+477.533+413.623+476.111+412.562+475.438C404.432+470.419+396.609+464.922+388.156+460.438C376.8+454.413+364.714+449.949+352.75+445.312Z" opacity="1" fill="#000000"/>
<path d="M426.031+553.625C424.858+553.177+423.542+553.764+423.094+554.938C421.406+559.52+418.638+563.493+415.719+567.375C413.894+569.802+412.042+572.197+410.219+574.625C403.724+583.273+396.243+591.019+388.969+599C384.276+604.149+379.808+609.51+375.219+614.75C380.1+609.794+384.853+604.723+389.844+599.875C396.519+593.391+403.415+587.139+409.781+580.344C411.641+578.359+413.395+576.289+415.156+574.219C416.813+572.272+418.555+570.402+420.156+568.406C423.077+564.765+425.626+560.913+427.344+556.562C427.792+555.389+427.205+554.073+426.031+553.625Z" opacity="1" fill="#000000"/>
<path d="M465.031+582C464.172+582.349+463.257+582.475+462.5+583.062C461.076+584.168+460.738+586.042+460.375+587.688C460.032+589.239+459.782+590.778+459.5+592.344C458.926+595.523+458.412+598.713+457.75+601.875C457.049+605.226+456.403+608.586+455.562+611.906C454.278+616.98+452.71+621.962+451+626.906C449.504+631.232+448.014+635.61+445.438+639.438C443.982+641.6+442.093+643.487+440.312+645.375C442.399+643.44+444.622+641.522+446.281+639.188C449.7+634.377+451.866+628.804+454.094+623.375C456.722+616.968+459.07+610.38+460.969+603.719C462.139+599.611+463.164+595.457+464.062+591.281C464.381+589.802+464.609+588.027+465.281+586.656C465.614+586.647+466.403+586.342+466.656+586.25C467.831+585.804+468.415+584.487+467.969+583.312C467.522+582.138+466.206+581.554+465.031+582Z" opacity="1" fill="#000000"/>
<path stroke="#000000" stroke-width="2" d="M255.486+504.159C255.486+369.402+364.728+260.159+499.486+260.159C634.243+260.159+743.486+369.402+743.486+504.159C743.486+555.116+727.866+602.424+701.152+641.557C657.221+705.914+583.287+748.159+499.486+748.159C364.728+748.159+255.486+638.917+255.486+504.159Z" fill="none" stroke-linecap="round" opacity="1" stroke-linejoin="round" />
<path stroke="#000000" stroke-width="2" d="M-25986.2+504.159C-25986.2+15131.8-14128.1+26989.8+499.484+26989.8C15127.1+26989.8+26985.1+15131.8+26985.1+504.159C26985.1-5027.08+25289.6-10162.3+22389.9-14410.1C17621.2-21395.8+9595.87-25981.5+499.484-25981.5C-14128.1-25981.5-25986.2-14123.5-25986.2+504.159Z" fill="none" stroke-linecap="round" opacity="1" stroke-linejoin="round" />
<path stroke="#000000" stroke-width="2" d="M155.033+504.159C155.033+313.923+309.25+159.707+499.486+159.707C689.722+159.707+843.939+313.923+843.939+504.159C843.939+576.094+821.888+642.879+784.176+698.123C722.158+788.974+617.787+848.612+499.486+848.612C309.25+848.612+155.033+694.395+155.033+504.159Z" fill="none" stroke-linecap="round" opacity="1" stroke-linejoin="round" />
<path stroke="#000000" stroke-width="2" d="M41.0984+504.159C41.0984+250.999+246.325+45.7717+499.486+45.7717C752.646+45.7717+957.874+250.999+957.874+504.159C957.874+599.888+928.529+688.764+878.344+762.281C795.812+883.183+656.917+962.547+499.486+962.547C246.325+962.547+41.0984+757.32+41.0984+504.159Z" fill="none" stroke-linecap="round" opacity="1" stroke-linejoin="round" />
<path stroke="#000000" stroke-width="2" d="M697.083+406.851C697.083+393.044+708.276+381.851+722.083+381.851C735.89+381.851+747.083+393.044+747.083+406.851C747.083+420.658+735.89+431.851+722.083+431.851C708.276+431.851+697.083+420.658+697.083+406.851Z" fill="#000000" stroke-linecap="round" opacity="1" stroke-linejoin="round"/>
<path stroke="#000000" stroke-width="2" d="M743.486+715.659C743.486+697.71+758.037+683.159+775.986+683.159C793.935+683.159+808.486+697.71+808.486+715.659C808.486+733.609+793.935+748.159+775.986+748.159C758.037+748.159+743.486+733.609+743.486+715.659Z" fill="#000000" stroke-linecap="round" opacity="1" stroke-linejoin="round"/>
<path stroke="#000000" stroke-width="2" d="M255.486+913.427C255.486+892.716+272.275+875.927+292.986+875.927C313.697+875.927+330.486+892.716+330.486+913.427C330.486+934.137+313.697+950.927+292.986+950.927C272.275+950.927+255.486+934.137+255.486+913.427Z" fill="#000000" stroke-linecap="round" opacity="1" stroke-linejoin="round"/>
</g>
</svg>
