<?xml version="1.0" encoding="UTF-8" standalone="no"?> <!-- Created with Vectornator for iOS (http://vectornator.io/) --><!DOCTYPE svg PUBLIC "-//W3C//DTD SVG 1.1//EN" "http://www.w3.org/Graphics/SVG/1.1/DTD/svg11.dtd">
<svg style="fill-rule:nonzero;clip-rule:evenodd;stroke-linecap:round;stroke-linejoin:round;" xmlns:vectornator="http://vectornator.io" xmlns:xlink="http://www.w3.org/1999/xlink" xmlns="http://www.w3.org/2000/svg" xml:space="preserve" version="1.1" viewBox="0 0 1024 1024">
<metadata>
<vectornator:setting key="DimensionsVisible" value="1"/>
<vectornator:setting key="PencilOnly" value="0"/>
<vectornator:setting key="SnapToPoints" value="0"/>
<vectornator:setting key="OutlineMode" value="0"/>
<vectornator:setting key="CMYKEnabledKey" value="0"/>
<vectornator:setting key="RulersVisible" value="1"/>
<vectornator:setting key="SnapToEdges" value="0"/>
<vectornator:setting key="GuidesVisible" value="1"/>
<vectornator:setting key="DisplayWhiteBackground" value="0"/>
<vectornator:setting key="doHistoryDisabled" value="0"/>
<vectornator:setting key="SnapToGuides" value="1"/>
<vectornator:setting key="TimeLapseWatermarkDisabled" value="0"/>
<vectornator:setting key="DynamicGuides" value="0"/>
<vectornator:setting key="IsolateActiveLayer" value="0"/>
<vectornator:setting key="SnapToGrid" value="0"/>
<vectornator:setting key="Units" value="Pixels"/>
</metadata>
<defs/>
<g id="Layer 1" vectornator:layerName="Layer 1">
<path stroke="#000000" stroke-width="10" d="M238.817+517.329C238.817+379.257+350.745+267.329+488.817+267.329C626.888+267.329+738.817+379.257+738.817+517.329C738.817+655.4+626.888+767.329+488.817+767.329C350.745+767.329+238.817+655.4+238.817+517.329Z" fill="none" stroke-linecap="round" opacity="1" stroke-linejoin="round"/>
</g>
<g id="I" vectornator:layerName="I">
<g opacity="1">
<path d="M483.875+796.031C481.394+795.634+479.053+797.331+478.656+799.812C476.999+810.906+476.271+822.099+476.219+833.312C476.202+836.886+476.312+840.46+476.406+844.031C476.479+846.791+476.448+849.553+476.531+852.312C476.718+858.511+477.051+864.68+477.344+870.875C478.364+892.478+479.866+914.063+482.531+935.531C483.86+946.239+485.513+956.916+487.438+967.531C485.71+953.788+484.468+939.988+483.719+926.156C482.428+902.343+482.565+878.477+483.531+854.656C483.674+851.126+483.671+847.593+483.812+844.062C483.922+841.328+484.111+838.608+484.25+835.875C484.838+824.275+485.669+812.711+487.625+801.25C488.022+798.769+486.356+796.428+483.875+796.031Z" opacity="1" fill="#000000"/>
<path d="M769.531+544.375C767.796+544.741+766.36+546.119+766+547.969C765.52+550.435+767.127+552.833+769.594+553.312C782.714+555.771+795.989+557.098+809.188+559.031C815.669+559.98+822.11+561.111+828.531+562.406C835.215+563.755+841.795+565.564+848.406+567.219C872.091+573.147+895.348+580.362+918.438+588.281C940.179+595.738+961.719+604.148+981.281+616.375C989.691+621.631+997.554+627.579+1004.97+634.156C997.773+627.296+990.115+621.041+981.875+615.469C962.338+602.257+940.597+592.922+918.688+584.438C899.51+577.011+880.17+570.056+860.594+563.75C852.649+561.191+844.67+558.874+836.625+556.656C831.255+555.176+825.894+553.671+820.438+552.531C804.191+549.137+787.583+547.656+771.312+544.375C770.696+544.255+770.11+544.253+769.531+544.375Z" opacity="1" fill="#000000"/>
<path d="M490.5+54.0312C490.079+72.9112+489.83+91.7733+489.594+110.656C489.372+128.369+489.175+146.112+488.438+163.812C488.237+168.635+488.194+173.428+488.031+178.25C487.806+184.924+487.587+191.604+487.469+198.281C487.385+203.022+487.049+207.767+487.469+212.5C487.797+216.201+488.642+219.772+489.938+223.25C490.838+225.596+493.467+226.776+495.812+225.875C498.158+224.974+499.338+222.346+498.438+220C497.572+217.823+496.899+215.599+496.531+213.281C495.747+208.342+496.057+203.294+496+198.312C495.924+191.626+495.663+184.931+495.438+178.25C495.325+174.912+495.341+171.588+495.219+168.25C494.263+142.242+492.897+116.253+491.812+90.25C491.309+78.1776+490.885+66.1079+490.5+54.0312Z" opacity="1" fill="#000000"/>
<path d="M699.25+83.5C679.273+106.885+660.228+131.026+641.938+155.75C635.74+164.127+629.641+172.577+623.594+181.062C620.712+185.106+617.806+189.101+615.031+193.219C612.517+196.949+609.851+200.559+607.281+204.25C604.484+208.267+601.765+212.336+599+216.375C595.781+221.077+592.517+225.811+590+230.938C588.349+234.3+587.084+237.78+586.156+241.406C585.555+243.846+587.06+246.305+589.5+246.906C591.94+247.508+594.399+246.034+595+243.594C597.181+234.345+602.454+226.784+607.5+218.906C611.372+212.861+615.103+206.713+618.906+200.625C620.574+197.956+622.307+195.329+623.969+192.656C626.353+188.821+628.676+184.96+631.062+181.125C636.781+171.935+642.632+162.827+648.625+153.812C664.621+129.75+681.538+106.327+699.25+83.5Z" opacity="1" fill="#000000"/>
<path d="M846.594+198.906C822.908+211.396+799.278+224.071+776.344+237.906C770.773+241.267+765.243+244.701+759.75+248.188C756.838+250.036+753.906+251.858+751.062+253.812C748.611+255.497+746.237+257.276+743.812+259C741.378+260.731+738.847+262.412+736.469+264.219C732.622+267.141+728.972+270.325+725.281+273.438C721.579+276.559+717.913+279.702+714.281+282.906C703.888+292.073+693.545+301.399+684.656+312.062C683.064+314.007+683.368+316.877+685.312+318.469C687.257+320.061+690.127+319.757+691.719+317.812C699.941+307.588+709.563+298.701+718.969+289.594C721.873+286.782+724.654+283.867+727.594+281.094C729.459+279.334+731.443+277.69+733.344+275.969C735.78+273.763+738.094+271.419+740.562+269.25C742.476+267.569+744.553+266.01+746.531+264.406C749.099+262.324+751.634+260.209+754.25+258.188C757.232+255.883+760.31+253.692+763.375+251.5C769.882+246.847+776.496+242.335+783.156+237.906C803.831+224.158+825.194+211.482+846.594+198.906Z" opacity="1" fill="#000000"/>
<path d="M936.812+348.688C902.563+362.409+868.008+375.659+835.406+393.062C829.702+396.108+824.016+399.292+818.438+402.562C812.731+405.907+807.232+409.541+801.656+413.094C799.137+414.699+796.6+416.25+794.094+417.875C782.116+425.637+770.361+433.742+758.219+441.25C756.093+442.59+755.441+445.374+756.781+447.5C758.121+449.626+760.937+450.277+763.062+448.938C774.164+441.805+784.995+434.28+795.719+426.594C799.593+423.817+803.403+420.958+807.281+418.188C810.18+416.117+813.175+414.165+816.094+412.125C823.27+407.109+830.508+402.194+838+397.656C869.5+378.577+903.343+363.883+936.812+348.688Z" opacity="1" fill="#000000"/>
<path d="M719.094+676.281C718.503+676.256+717.901+676.343+717.312+676.562C714.958+677.441+713.747+680.052+714.625+682.406C720.253+697.165+729.504+710.005+739.469+722.125C743.694+727.264+748.175+732.215+752.375+737.375C772.631+762.262+796.189+784.142+819.094+806.531C825.658+812.948+832.147+819.434+838.531+826.031C848.855+836.699+858.968+847.572+869.281+858.25C855.332+842.634+841.733+826.708+827.469+811.375C811.655+794.375+795.348+777.823+780.125+760.281C776.083+755.624+772.118+750.891+768.281+746.062C765.637+742.735+763.11+739.354+760.5+736C755.895+730.082+751.325+724.13+746.75+718.188C737.461+706.122+728.408+693.676+723.156+679.25C722.498+677.484+720.865+676.358+719.094+676.281Z" opacity="1" fill="#000000"/>
<path d="M596.688+761.594C594.914+761.609+593.22+762.664+592.5+764.406C591.54+766.729+592.646+769.416+594.969+770.375C596.284+770.903+597.649+771.212+599+771.625C599.152+771.672+599.901+771.929+599.906+771.938C601.329+774.199+601.746+776.809+602.375+779.375C602.686+780.643+603.101+781.88+603.375+783.156C603.872+785.473+604.284+787.807+604.781+790.125C606.533+798.284+608.42+806.388+610.5+814.469C611.503+818.367+612.398+822.306+613.469+826.188C619.872+849.393+627.922+872.153+637.156+894.375C642.746+907.828+648.16+921.634+657.031+933.344C661.796+939.634+667.774+944.926+673.469+950.344C668.05+944.709+662.363+939.179+657.906+932.719C649.644+920.741+644.858+906.856+639.969+893.281C634.849+879.066+630.221+864.691+626.312+850.094C623.774+840.614+621.71+831.048+619.594+821.469C617.173+810.513+615.249+799.46+613.156+788.438C612.714+786.11+612.351+783.763+611.906+781.438C611.523+779.436+610.995+777.462+610.562+775.469C609.82+772.046+608.836+768.157+606.25+765.594C605+764.355+603.432+763.58+601.781+763.031C600.675+762.664+599.542+762.431+598.469+761.969C597.888+761.729+597.279+761.589+596.688+761.594Z" opacity="1" fill="#000000"/>
</g>
<path d="M212.156+548.656C195.886+551.938+179.309+553.45+163.062+556.844C157.606+557.984+152.214+559.489+146.844+560.969C138.799+563.186+130.82+565.472+122.875+568.031C103.299+574.337+83.9585+581.324+64.7812+588.75C42.8718+597.234+21.162+606.539+1.625+619.75C-6.61522+625.322-14.3041+631.608-21.5+638.469C-14.0849+631.892-6.22183+625.912+2.1875+620.656C22.0669+608.231+43.9749+599.796+66.0625+592.219C88.8078+584.416+111.763+577.371+135.094+571.531C141.705+569.876+148.285+568.067+154.969+566.719C161.39+565.423+167.831+564.293+174.312+563.344C187.511+561.411+200.786+560.052+213.906+557.594C216.373+557.114+217.98+554.717+217.5+552.25C217.02+549.783+214.623+548.176+212.156+548.656Z" opacity="1" fill="#000000"/>
<path d="M492.969+58.3125C492.584+70.3891+492.159+82.4589+491.656+94.5312C490.572+120.534+489.206+146.523+488.25+172.531C488.127+175.869+488.144+179.225+488.031+182.562C487.806+189.244+487.545+195.908+487.469+202.594C487.412+207.576+487.722+212.655+486.938+217.594C486.569+219.911+485.896+222.104+485.031+224.281C484.13+226.627+485.31+229.255+487.656+230.156C490.002+231.057+492.63+229.908+493.531+227.562C494.826+224.084+495.703+220.514+496.031+216.812C496.451+212.079+496.084+207.304+496+202.562C495.882+195.886+495.663+189.236+495.438+182.562C495.362+180.337+495.355+178.101+495.312+175.875C495.255+172.908+495.12+169.965+495+167C494.284+149.291+494.097+131.564+493.875+113.844C493.644+95.3382+493.381+76.815+492.969+58.3125Z" opacity="1" fill="#000000"/>
<path d="M284.25+87.7812C301.962+110.608+318.879+134.031+334.875+158.094C340.868+167.108+346.719+176.216+352.438+185.406C354.824+189.241+357.147+193.133+359.531+196.969C361.193+199.641+362.926+202.269+364.594+204.938C368.397+211.025+372.096+217.174+375.969+223.219C381.015+231.096+386.288+238.626+388.469+247.875C389.07+250.315+391.56+251.82+394+251.219C396.44+250.617+397.914+248.127+397.312+245.688C396.384+242.061+395.119+238.581+393.469+235.219C390.952+230.092+387.719+225.389+384.5+220.688C381.735+216.648+379.016+212.58+376.219+208.562C373.392+204.502+370.442+200.518+367.688+196.406C364.923+192.279+361.97+188.299+359.094+184.25C353.322+176.125+347.459+168.043+341.531+160.031C323.24+135.307+304.227+111.167+284.25+87.7812Z" opacity="1" fill="#000000"/>
<path d="M136.906+203.219C158.639+215.99+180.284+228.883+201.281+242.844C207.623+247.06+213.899+251.382+220.094+255.812C223.159+258.004+226.268+260.164+229.25+262.469C231.865+264.49+234.401+266.637+236.969+268.719C238.947+270.323+240.993+271.85+242.906+273.531C245.374+275.7+247.72+278.044+250.156+280.25C252.057+281.971+254.01+283.616+255.875+285.375C259.084+288.401+262.135+291.596+265.312+294.656C274.476+303.48+283.794+312.192+291.781+322.125C293.373+324.069+296.243+324.342+298.188+322.75C300.132+321.158+300.404+318.288+298.812+316.344C289.923+305.68+279.612+296.354+269.219+287.188C265.587+283.984+261.889+280.841+258.188+277.719C254.497+274.606+250.846+271.422+247+268.5C244.621+266.693+242.122+265.044+239.688+263.312C237.263+261.589+234.857+259.81+232.406+258.125C229.249+255.955+225.984+253.927+222.75+251.875C217.578+248.593+212.37+245.351+207.125+242.188C184.191+228.352+160.592+215.709+136.906+203.219Z" opacity="1" fill="#000000"/>
<path d="M46.6562+353C80.1257+368.195+113.969+382.89+145.469+401.969C152.961+406.507+160.23+411.421+167.406+416.438C170.325+418.478+173.289+420.398+176.188+422.469C180.066+425.239+183.907+428.098+187.781+430.875C198.505+438.562+209.336+446.086+220.438+453.219C222.563+454.559+225.348+453.938+226.688+451.812C228.027+449.687+227.407+446.871+225.281+445.531C213.139+438.023+201.384+429.95+189.406+422.188C186.899+420.563+184.363+418.98+181.844+417.375C176.268+413.822+170.738+410.189+165.031+406.844C159.453+403.574+153.798+400.42+148.094+397.375C115.492+379.971+80.9054+366.722+46.6562+353Z" opacity="1" fill="#000000"/>
<path d="M264.406+680.562C262.635+680.639+261.002+681.765+260.344+683.531C255.424+697.044+247.143+708.875+238.469+720.219C233.099+727.241+227.651+734.198+222.281+741.219C216.186+749.189+209.921+756.983+203.344+764.562C188.12+782.104+171.814+798.657+156+815.656C141.736+830.989+128.137+846.916+114.188+862.531C124.501+851.853+134.614+841.012+144.938+830.344C151.322+823.747+157.842+817.26+164.406+810.844C187.311+788.455+210.837+766.544+231.094+741.656C235.293+736.496+239.775+731.577+244+726.438C253.965+714.318+263.216+701.477+268.844+686.719C269.722+684.364+268.542+681.722+266.188+680.844C265.599+680.624+264.997+680.537+264.406+680.562Z" opacity="1" fill="#000000"/>
<path d="M386.812+765.906C386.221+765.901+385.612+766.01+385.031+766.25C383.958+766.713+382.825+766.976+381.719+767.344C380.068+767.892+378.5+768.636+377.25+769.875C374.664+772.439+373.68+776.358+372.938+779.781C372.505+781.774+371.977+783.748+371.594+785.75C371.149+788.076+370.786+790.422+370.344+792.75C368.251+803.772+366.327+814.825+363.906+825.781C361.79+835.36+359.695+844.926+357.156+854.406C353.248+869.004+348.619+883.347+343.5+897.562C338.611+911.137+333.856+925.054+325.594+937.031C321.137+943.491+315.45+948.99+310.031+954.625C315.726+949.207+321.673+943.915+326.438+937.625C335.308+925.915+340.754+912.14+346.344+898.688C355.578+876.465+363.597+853.674+370+830.469C371.071+826.587+371.966+822.68+372.969+818.781C375.17+810.226+377.146+801.637+379+793C379.395+791.16+379.699+789.308+380.094+787.469C380.439+785.859+380.967+784.291+381.344+782.688C381.872+780.436+382.323+778.22+383.562+776.25C383.634+776.136+384.704+775.855+384.969+775.781C386.162+775.447+387.348+775.119+388.5+774.656C390.822+773.697+391.928+771.041+390.969+768.719C390.249+766.977+388.586+765.921+386.812+765.906Z" opacity="1" fill="#000000"/>
</g>
</svg>
