<?xml version="1.0" standalone="no"?>
<!DOCTYPE svg PUBLIC "-//W3C//DTD SVG 20010904//EN"
 "http://www.w3.org/TR/2001/REC-SVG-20010904/DTD/svg10.dtd">
<svg version="1.0" xmlns="http://www.w3.org/2000/svg"
 width="3000.000000pt" height="3000.000000pt" viewBox="0 0 3000.000000 3000.000000"
 preserveAspectRatio="xMidYMid meet">
<metadata>
Created by potrace 1.11, written by Peter Selinger 2001-2013
</metadata>
<g transform="translate(0.000000,3000.000000) scale(0.100000,-0.100000)"
fill="#000000" stroke="none">
<path d="M21160 27782 c6 -9 44 -57 85 -107 101 -122 137 -197 143 -296 3 -49
0 -79 -6 -83 -6 -4 -107 -34 -224 -67 -383 -108 -556 -124 -666 -64 -59 32
-85 63 -130 150 -23 46 -102 158 -137 193 -6 6 -65 -31 -65 -40 0 -5 34 -92
75 -195 41 -103 73 -188 71 -191 -3 -2 -84 15 -181 37 -97 23 -178 41 -181 41
-4 0 -3 -31 1 -68 7 -67 6 -69 -21 -86 -24 -16 -47 -18 -215 -14 -104 2 -189
2 -189 1 0 -2 68 -37 151 -79 83 -41 150 -76 148 -78 -4 -3 -223 17 -311 28
-21 2 -38 1 -38 -4 0 -4 20 -30 45 -58 59 -66 116 -89 278 -112 111 -16 135
-23 150 -41 l18 -23 -111 -43 c-62 -24 -116 -43 -121 -43 -5 0 -9 -4 -9 -9 0
-5 83 -37 184 -71 223 -74 313 -117 430 -203 49 -37 128 -86 175 -111 100 -52
461 -197 710 -286 l173 -62 172 7 c158 7 369 -7 488 -31 31 -6 48 -45 48 -108
0 -63 -15 -103 -75 -206 -66 -114 -145 -266 -145 -280 0 -5 6 -10 14 -10 18 0
200 216 223 264 9 20 22 36 29 36 26 0 24 -20 -6 -53 l-30 -34 66 -28 c35 -15
71 -36 78 -47 17 -24 62 -150 111 -310 l36 -117 167 119 c161 114 168 120 185
169 16 46 16 53 2 87 -53 128 -79 353 -56 491 7 39 25 96 39 128 l27 57 54
-121 c29 -67 55 -120 58 -118 4 5 -13 117 -42 272 -8 44 -14 110 -15 146 0
139 -48 337 -116 488 -113 248 -373 521 -693 729 -81 52 -142 103 -210 172
-117 120 -175 151 -395 215 -84 24 -177 54 -205 65 -47 18 -51 18 -41 2z"/>
<path d="M25175 21633 c-88 -41 -195 -96 -239 -121 -118 -68 -182 -91 -249
-92 -136 0 -285 -40 -395 -105 -130 -77 -271 -225 -440 -463 -102 -143 -150
-194 -205 -217 -65 -27 -101 -9 -194 93 -128 140 -201 166 -493 182 -102 6
-202 14 -222 19 -35 8 -32 4 67 -93 193 -190 323 -397 457 -731 45 -113 208
-555 208 -566 0 -4 -33 1 -72 12 -83 21 -166 24 -189 6 -36 -27 -44 -60 -43
-169 0 -59 3 -110 6 -113 3 -3 191 -37 418 -75 227 -38 414 -71 417 -74 3 -3
47 -114 98 -248 179 -469 221 -550 315 -598 80 -41 217 -30 321 27 149 81 247
295 236 513 -4 81 -16 130 -77 330 -39 129 -85 277 -100 328 l-29 94 107 51
107 52 137 -3 c157 -4 224 9 322 61 70 37 199 157 294 272 36 44 74 88 85 98
18 16 12 17 -145 17 -132 0 -168 3 -186 16 -12 8 -25 13 -30 11 -4 -3 -45 -2
-90 2 l-84 6 133 90 c130 87 190 141 359 322 87 93 139 126 240 152 109 27
110 37 8 137 l-85 84 196 2 196 3 3 35 3 35 -238 79 c-131 44 -233 81 -228 82
6 2 123 24 260 49 138 25 262 48 278 51 28 6 35 26 18 53 -5 8 -83 29 -192 51
-101 20 -177 40 -169 44 8 3 75 25 149 49 l133 42 -58 47 c-80 65 -139 95
-230 118 -141 36 -246 26 -557 -54 -207 -54 -211 -54 -201 -23 17 52 33 107
31 106 -1 0 -74 -34 -162 -76z"/>
<path d="M19271 19435 c-18 -20 -31 -40 -29 -45 2 -4 41 -38 87 -75 l83 -67
26 25 25 25 -31 39 c-17 21 -53 60 -80 86 l-49 48 -32 -36z"/>
<path d="M22970 14739 c-40 -66 -77 -122 -81 -124 -4 -3 -13 27 -20 65 -7 39
-16 73 -20 75 -4 3 -60 -82 -125 -187 -255 -419 -411 -626 -876 -1164 -170
-197 -202 -228 -276 -262 -104 -47 -271 -15 -360 71 -62 59 -72 89 -98 312 -9
75 -16 74 -95 -9 -99 -105 -151 -174 -179 -238 -32 -72 -31 -189 4 -363 14
-71 26 -131 26 -131 0 -1 -35 -16 -77 -33 -283 -112 -508 -87 -729 82 l-71 55
-22 -94 c-13 -52 -26 -94 -30 -94 -4 0 -73 29 -154 64 -80 35 -148 62 -151 59
-9 -10 -148 -32 -200 -32 -56 -1 -225 67 -535 216 -96 46 -176 82 -178 80 -8
-9 211 -227 258 -257 28 -18 101 -55 162 -81 113 -49 117 -52 102 -95 -2 -8
-154 26 -461 102 -251 63 -458 113 -461 111 -2 -3 27 -33 64 -67 129 -119 265
-180 526 -236 127 -28 128 -29 122 -54 -4 -14 -8 -26 -9 -28 -2 -1 -178 -5
-391 -9 -386 -6 -388 -6 -364 -26 79 -64 207 -101 424 -122 195 -19 323 -44
304 -58 -2 -2 -137 -58 -299 -125 -294 -120 -295 -121 -292 -149 2 -15 6 -31
10 -35 6 -5 174 25 373 67 18 4 28 1 32 -9 4 -11 -27 -42 -105 -103 -60 -48
-104 -89 -96 -91 8 -1 106 9 218 22 112 14 205 24 207 23 1 -2 -27 -43 -62
-92 -36 -49 -65 -92 -65 -95 0 -9 406 -197 540 -250 527 -210 1028 -188 1739
77 95 35 175 62 178 60 2 -3 -17 -121 -42 -263 -64 -352 -59 -399 46 -451 57
-29 202 -67 354 -94 167 -29 379 -29 490 0 207 55 344 165 503 404 134 204
152 293 91 453 l-35 90 29 40 c15 21 42 53 60 70 18 16 37 38 42 48 7 12 36
21 105 32 72 11 99 20 113 35 9 12 17 25 17 29 0 4 -30 13 -67 20 -38 6 -170
36 -294 65 -124 30 -251 57 -282 61 -31 4 -57 10 -57 13 0 4 43 45 95 91 213
187 360 358 472 548 160 270 230 509 258 869 24 309 62 562 96 637 19 41 25
131 11 153 -4 7 -19 -16 -37 -59 -41 -97 -42 -63 -5 111 17 79 28 146 25 149
-3 3 1 12 7 21 7 9 -17 -12 -53 -46 -74 -71 -134 -113 -160 -113 -23 0 -23 0
-4 36 8 16 22 72 31 124 9 52 18 98 21 103 2 4 2 7 0 7 -3 0 -40 -47 -83 -104
-66 -90 -80 -103 -96 -95 -22 12 -22 17 2 175 11 70 18 129 17 131 -2 1 -36
-52 -77 -118z"/>
<path d="M26912 7249 c2 -1330 0 -1985 -7 -1974 -5 10 -39 59 -74 109 -404
578 -1021 906 -1706 906 -566 0 -1093 -214 -1499 -609 -415 -404 -668 -935
-763 -1601 -25 -175 -25 -695 0 -890 87 -686 329 -1219 728 -1605 313 -304
669 -479 1124 -556 155 -26 461 -36 605 -20 659 75 1243 421 1579 936 l51 78
0 -407 0 -406 480 0 480 0 0 4015 0 4015 -501 0 -501 0 4 -1991z m-1320 -1874
c585 -77 1053 -479 1248 -1073 79 -242 105 -435 97 -731 -8 -337 -60 -569
-186 -826 -84 -172 -168 -291 -286 -410 -300 -299 -718 -451 -1195 -432 -580
23 -1000 304 -1227 820 -184 417 -223 1043 -96 1532 77 296 209 532 407 730
118 117 208 183 346 253 140 70 347 128 520 145 92 9 270 6 372 -8z"/>
<path d="M16405 6284 c-122 -13 -269 -36 -372 -60 -944 -210 -1624 -909 -1843
-1894 -81 -363 -92 -837 -29 -1225 77 -471 265 -910 532 -1240 92 -114 285
-299 402 -386 362 -268 782 -422 1290 -470 172 -17 524 -6 699 21 334 51 644
159 922 321 341 199 681 538 898 894 49 81 56 99 45 110 -8 7 -173 112 -368
234 l-354 221 -42 -11 c-40 -10 -47 -18 -123 -132 -298 -449 -624 -683 -1067
-764 -133 -25 -466 -24 -600 1 -679 127 -1124 656 -1227 1456 -18 143 -15 490
6 635 60 416 215 754 461 1000 201 200 432 323 725 386 140 31 472 33 620 6
430 -81 772 -330 1081 -788 52 -78 62 -87 101 -97 33 -9 47 -8 63 2 11 7 179
113 373 235 193 123 352 226 352 230 0 4 -40 68 -88 142 -431 655 -1018 1032
-1802 1154 -101 16 -557 29 -655 19z"/>
<path d="M20775 2485 c-151 -41 -246 -96 -347 -204 -121 -127 -177 -263 -186
-446 -4 -91 -1 -125 17 -195 85 -340 373 -555 720 -537 192 9 338 74 473 209
90 90 156 210 183 333 26 114 17 283 -20 389 -75 214 -268 389 -491 446 -92
24 -271 26 -349 5z"/>
</g>
</svg>
